<svg width="26" height="26" viewBox="0 0 26 26" fill="none" xmlns="http://www.w3.org/2000/svg">
<rect x="6" y="5" width="15" height="15" fill="white"/>
<path fill-rule="evenodd" clip-rule="evenodd" d="M6.77661 0.5C5.11901 0.5 3.5293 1.15848 2.35719 2.33058C1.18509 3.50269 0.526611 5.0924 0.526611 6.75V19.25C0.526611 20.9076 1.18509 22.4973 2.35719 23.6694C3.5293 24.8415 5.11901 25.5 6.77661 25.5H19.2766C20.9342 25.5 22.5239 24.8415 23.696 23.6694C24.8681 22.4973 25.5266 20.9076 25.5266 19.25V6.75C25.5266 5.0924 24.8681 3.50269 23.696 2.33058C22.5239 1.15848 20.9342 0.5 19.2766 0.5H6.77661ZM17.6891 11.355C17.8014 11.2352 17.889 11.0944 17.9468 10.9407C18.0047 10.787 18.0318 10.6235 18.0264 10.4593C18.0211 10.2952 17.9835 10.1337 17.9157 9.98415C17.848 9.83456 17.7514 9.69978 17.6316 9.5875C17.5118 9.47522 17.371 9.38764 17.2173 9.32977C17.0637 9.27189 16.9001 9.24485 16.736 9.25019C16.5718 9.25553 16.4104 9.29314 16.2608 9.36088C16.1112 9.42863 15.9764 9.52517 15.8641 9.645L12.0104 13.7575L10.1066 12.0662C9.85718 11.8589 9.53692 11.7566 9.21349 11.781C8.89005 11.8054 8.58876 11.9546 8.37326 12.197C8.15777 12.4395 8.04495 12.7562 8.05864 13.0802C8.07233 13.4043 8.21145 13.7104 8.44661 13.9338L11.2591 16.4338C11.5025 16.6499 11.8206 16.7626 12.1457 16.7479C12.4709 16.7332 12.7775 16.5923 13.0004 16.355L17.6879 11.355H17.6891Z" fill="#C2AD60"/>
</svg>
