<svg width="30" height="30" viewBox="0 0 30 30" fill="none" xmlns="http://www.w3.org/2000/svg">
<g clip-path="url(#clip0_247_1988)">
<path d="M0 7.5L15 5.625L30 7.5V22.5L15 24.375L0 22.5V7.5Z" fill="#FFDA44"/>
<path d="M0 0H30V7.5H0V0ZM0 22.5H30V30H0V22.5Z" fill="#D80027"/>
<path d="M8.4375 17.8125H7.5V13.125H8.4375V17.8125ZM15.9375 17.8125H16.875V13.125H15.9375V17.8125Z" fill="#EEEEEE"/>
<path d="M12.1875 19.2188C13.7408 19.2188 15 18.3793 15 17.3438C15 16.3082 13.7408 15.4688 12.1875 15.4688C10.6342 15.4688 9.375 16.3082 9.375 17.3438C9.375 18.3793 10.6342 19.2188 12.1875 19.2188Z" fill="#EEEEEE"/>
<path d="M8.4375 11.7188C8.4375 11.4599 8.22763 11.25 7.96875 11.25C7.70987 11.25 7.5 11.4599 7.5 11.7188V12.1875C7.5 12.4464 7.70987 12.6562 7.96875 12.6562C8.22763 12.6562 8.4375 12.4464 8.4375 12.1875V11.7188Z" fill="#D80027"/>
<path d="M16.875 11.7188C16.875 11.4599 16.6651 11.25 16.4062 11.25C16.1474 11.25 15.9375 11.4599 15.9375 11.7188V12.1875C15.9375 12.4464 16.1474 12.6562 16.4062 12.6562C16.6651 12.6562 16.875 12.4464 16.875 12.1875V11.7188Z" fill="#D80027"/>
<path d="M12.1875 15.9375V17.3438C12.1875 17.7167 12.3357 18.0744 12.5994 18.3381C12.8631 18.6018 13.2208 18.75 13.5938 18.75C13.9667 18.75 14.3244 18.6018 14.5881 18.3381C14.8518 18.0744 15 17.7167 15 17.3438V15.9375H13.5938H12.1875Z" fill="#D80027"/>
<path d="M8.4375 12.1875H7.5C7.24112 12.1875 7.03125 12.3974 7.03125 12.6562C7.03125 12.9151 7.24112 13.125 7.5 13.125H8.4375C8.69638 13.125 8.90625 12.9151 8.90625 12.6562C8.90625 12.3974 8.69638 12.1875 8.4375 12.1875Z" fill="#FF9811"/>
<path d="M16.875 12.1875H15.9375C15.6786 12.1875 15.4688 12.3974 15.4688 12.6562C15.4688 12.9151 15.6786 13.125 15.9375 13.125H16.875C17.1339 13.125 17.3438 12.9151 17.3438 12.6562C17.3438 12.3974 17.1339 12.1875 16.875 12.1875Z" fill="#FF9811"/>
<path d="M8.4375 17.8125H7.5C7.24112 17.8125 7.03125 18.0224 7.03125 18.2812C7.03125 18.5401 7.24112 18.75 7.5 18.75H8.4375C8.69638 18.75 8.90625 18.5401 8.90625 18.2812C8.90625 18.0224 8.69638 17.8125 8.4375 17.8125Z" fill="#FF9811"/>
<path d="M16.875 17.8125H15.9375C15.6786 17.8125 15.4688 18.0224 15.4688 18.2812C15.4688 18.5401 15.6786 18.75 15.9375 18.75H16.875C17.1339 18.75 17.3438 18.5401 17.3438 18.2812C17.3438 18.0224 17.1339 17.8125 16.875 17.8125Z" fill="#FF9811"/>
<path d="M9.375 15.9375V17.3438C9.375 17.8125 9.60938 18.1641 9.90234 18.457L10.1953 18.1055L10.4883 18.6914C10.6807 18.7386 10.8818 18.7386 11.0742 18.6914L11.3672 18.1055L11.6602 18.457C12.0117 18.1641 12.1875 17.8125 12.1875 17.3438V15.9375H11.6602L11.3672 16.4062L11.0742 15.9375H10.4883L10.1953 16.4062L9.90234 15.9375H9.375Z" fill="#FF9811"/>
<path d="M7.14844 14.5312C7.08628 14.5312 7.02666 14.5559 6.98271 14.5999C6.93876 14.6439 6.91406 14.7035 6.91406 14.7656C6.91406 14.8278 6.93876 14.8874 6.98271 14.9314C7.02666 14.9753 7.08628 15 7.14844 15H17.2266C17.2887 15 17.3483 14.9753 17.3923 14.9314C17.4362 14.8874 17.4609 14.8278 17.4609 14.7656C17.4609 14.7035 17.4362 14.6439 17.3923 14.5999C17.3483 14.5559 17.2887 14.5312 17.2266 14.5312H7.14844ZM7.14844 15.9375C7.08628 15.9375 7.02666 15.9622 6.98271 16.0061C6.93876 16.0501 6.91406 16.1097 6.91406 16.1719C6.91406 16.234 6.93876 16.2936 6.98271 16.3376C7.02666 16.3816 7.08628 16.4062 7.14844 16.4062H8.78906C8.85122 16.4062 8.91084 16.3816 8.95479 16.3376C8.99874 16.2936 9.02344 16.234 9.02344 16.1719C9.02344 16.1097 8.99874 16.0501 8.95479 16.0061C8.91084 15.9622 8.85122 15.9375 8.78906 15.9375H7.14844ZM15.5859 15.9375C15.5238 15.9375 15.4642 15.9622 15.4202 16.0061C15.3763 16.0501 15.3516 16.1097 15.3516 16.1719C15.3516 16.234 15.3763 16.2936 15.4202 16.3376C15.4642 16.3816 15.5238 16.4062 15.5859 16.4062H17.2266C17.2887 16.4062 17.3483 16.3816 17.3923 16.3376C17.4362 16.2936 17.4609 16.234 17.4609 16.1719C17.4609 16.1097 17.4362 16.0501 17.3923 16.0061C17.3483 15.9622 17.2887 15.9375 17.2266 15.9375H15.5859Z" fill="#D80027"/>
<path d="M11.4844 9.84375C11.0742 9.84375 10.7227 10.1367 10.6055 10.4883L10.3125 10.4297C9.78516 10.4297 9.375 10.8398 9.375 11.3672C9.375 11.8945 9.78516 12.3047 10.3125 12.3047C10.7227 12.3047 11.0742 12.0703 11.1914 11.6602C11.3623 11.7218 11.5474 11.7325 11.7243 11.6909C11.9011 11.6492 12.062 11.5572 12.1875 11.4258C12.313 11.5572 12.4739 11.6492 12.6507 11.6909C12.8276 11.7325 13.0127 11.7218 13.1836 11.6602C13.2404 11.8376 13.3489 11.9941 13.4951 12.1097C13.6413 12.2252 13.8187 12.2946 14.0045 12.3089C14.1903 12.3232 14.3761 12.2818 14.5383 12.19C14.7005 12.0981 14.8316 11.9601 14.9149 11.7934C14.9983 11.6267 15.03 11.439 15.0062 11.2542C14.9823 11.0693 14.9039 10.8958 14.781 10.7557C14.6581 10.6157 14.4962 10.5154 14.3161 10.4678C14.1359 10.4201 13.9456 10.4273 13.7695 10.4883C13.713 10.3364 13.6181 10.2017 13.494 10.0974C13.3699 9.99316 13.2209 9.92283 13.0616 9.89332C12.9022 9.86381 12.7379 9.87611 12.5847 9.92904C12.4315 9.98197 12.2947 10.0737 12.1875 10.1953C12.0117 9.96094 11.7773 9.84375 11.4844 9.84375ZM11.4844 10.3125C11.7773 10.3125 11.9531 10.5469 11.9531 10.7812C11.9531 11.0742 11.7773 11.25 11.4844 11.25C11.25 11.25 11.0156 11.0742 11.0156 10.7812C11.0156 10.5469 11.25 10.3125 11.4844 10.3125ZM12.8906 10.3125C13.1836 10.3125 13.3594 10.5469 13.3594 10.7812C13.3594 11.0742 13.1836 11.25 12.8906 11.25C12.6562 11.25 12.4219 11.0742 12.4219 10.7812C12.4219 10.5469 12.6562 10.3125 12.8906 10.3125ZM10.3125 10.8984L10.5469 10.957L10.7812 11.4258C10.7812 11.6602 10.5469 11.8359 10.3125 11.8359C10.0781 11.8359 9.84375 11.6602 9.84375 11.3672C9.84375 11.1328 10.0781 10.8984 10.3125 10.8984ZM14.0625 10.8984C14.3555 10.8984 14.5312 11.1328 14.5312 11.3672C14.5312 11.6602 14.3555 11.8359 14.0625 11.8359C13.8281 11.8359 13.5938 11.6602 13.5938 11.4258L13.8281 10.957L14.0625 10.8984Z" fill="#EEEEEE"/>
<path d="M11.7188 9.375H12.6562V11.25H11.7188V9.375Z" fill="#FF9811"/>
<path d="M12.1875 13.125H15V15.9375H12.1875V13.125Z" fill="#EEEEEE"/>
<path d="M14.5312 12.1875L14.0625 12.6562H10.3125L9.84375 12.1875C9.84375 11.4258 10.8984 10.7812 12.1875 10.7812C13.4766 10.7812 14.5312 11.4258 14.5312 12.1875ZM9.375 13.125H12.1875V15.9375H9.375V13.125Z" fill="#D80027"/>
<path d="M14.1797 14.1797C14.1797 13.8561 13.9174 13.5938 13.5938 13.5938C13.2701 13.5938 13.0078 13.8561 13.0078 14.1797V14.8828C13.0078 15.2064 13.2701 15.4688 13.5938 15.4688C13.9174 15.4688 14.1797 15.2064 14.1797 14.8828V14.1797Z" fill="#D80027"/>
<path d="M9.84375 13.5938V14.0625H10.3125V15H9.84375V15.4688H11.7188V15H11.25V14.0625H11.7188V13.5938H9.84375ZM10.3125 12.6562H14.0625V13.125H10.3125V12.6562Z" fill="#FF9811"/>
<path d="M10.8984 12.1875C11.0926 12.1875 11.25 12.0301 11.25 11.8359C11.25 11.6418 11.0926 11.4844 10.8984 11.4844C10.7043 11.4844 10.5469 11.6418 10.5469 11.8359C10.5469 12.0301 10.7043 12.1875 10.8984 12.1875Z" fill="#FFDA44"/>
<path d="M12.1875 12.1875C12.3817 12.1875 12.5391 12.0301 12.5391 11.8359C12.5391 11.6418 12.3817 11.4844 12.1875 11.4844C11.9933 11.4844 11.8359 11.6418 11.8359 11.8359C11.8359 12.0301 11.9933 12.1875 12.1875 12.1875Z" fill="#FFDA44"/>
<path d="M13.4766 12.1875C13.6707 12.1875 13.8281 12.0301 13.8281 11.8359C13.8281 11.6418 13.6707 11.4844 13.4766 11.4844C13.2824 11.4844 13.125 11.6418 13.125 11.8359C13.125 12.0301 13.2824 12.1875 13.4766 12.1875Z" fill="#FFDA44"/>
<path d="M9.90234 15.9375V18.457C10.0774 18.5785 10.2777 18.6587 10.4883 18.6914V15.9375H9.90234ZM11.0742 15.9375V18.6914C11.2848 18.6587 11.4851 18.5785 11.6602 18.457V15.9375H11.0742Z" fill="#D80027"/>
<path d="M12.1875 16.875C12.7053 16.875 13.125 16.4553 13.125 15.9375C13.125 15.4197 12.7053 15 12.1875 15C11.6697 15 11.25 15.4197 11.25 15.9375C11.25 16.4553 11.6697 16.875 12.1875 16.875Z" fill="#338AF3"/>
<path d="M16.875 18.75H15.9375C15.6786 18.75 15.4688 18.9599 15.4688 19.2188C15.4688 19.4776 15.6786 19.6875 15.9375 19.6875H16.875C17.1339 19.6875 17.3438 19.4776 17.3438 19.2188C17.3438 18.9599 17.1339 18.75 16.875 18.75Z" fill="#338AF3"/>
<path d="M8.4375 18.75H7.5C7.24112 18.75 7.03125 18.9599 7.03125 19.2188C7.03125 19.4776 7.24112 19.6875 7.5 19.6875H8.4375C8.69638 19.6875 8.90625 19.4776 8.90625 19.2188C8.90625 18.9599 8.69638 18.75 8.4375 18.75Z" fill="#338AF3"/>
</g>
<defs>
<clipPath id="clip0_247_1988">
<rect width="30" height="30" rx="15" fill="white"/>
</clipPath>
</defs>
</svg>
