<svg width="21" height="21" viewBox="0 0 21 21" fill="none" xmlns="http://www.w3.org/2000/svg">
<path d="M13.534 10.4974C13.534 8.70538 12.0131 7.24298 10.1494 7.24298C8.28577 7.24298 6.76487 8.70538 6.76487 10.4974C6.76487 12.2894 8.28577 13.7518 10.1494 13.7518C12.0131 13.7518 13.534 12.2894 13.534 10.4974ZM10.1494 20.2581C11.551 20.2581 12.9399 20.2703 14.3389 20.1946C15.9639 20.119 17.4061 19.7625 18.5944 18.6199C19.7852 17.4749 20.1533 16.0906 20.2321 14.5281C20.3108 13.1805 20.2981 11.845 20.2981 10.4998C20.2981 9.15216 20.3108 7.81671 20.2321 6.4715C20.1533 4.909 19.7826 3.52228 18.5944 2.3797C17.4035 1.23468 15.9639 0.880678 14.3389 0.804994C12.9373 0.72931 11.5485 0.741518 10.1494 0.741518C8.75042 0.741518 7.35901 0.72931 5.95999 0.804994C4.33499 0.880678 2.8928 1.23712 1.70452 2.3797C0.513697 3.52472 0.145533 4.909 0.0668222 6.4715C-0.0118887 7.81915 0.000805677 9.1546 0.000805677 10.4998C0.000805677 11.8475 -0.0118887 13.1829 0.0668222 14.5281C0.145533 16.0906 0.516236 17.4774 1.70452 18.6199C2.89534 19.765 4.33499 20.119 5.95999 20.1946C7.35901 20.2728 8.74788 20.2581 10.1494 20.2581V20.2581ZM4.94182 10.4974C4.94182 7.72638 7.2676 5.49005 10.1494 5.49005C13.0313 5.49005 15.3571 7.72638 15.3571 10.4974C15.3571 13.2684 13.0313 15.5047 10.1494 15.5047C7.2676 15.5047 4.94182 13.2684 4.94182 10.4974ZM14.3541 15.7098C14.3541 15.0628 14.8975 14.5403 15.5703 14.5403C16.2432 14.5403 16.7865 15.0628 16.7865 15.7098C16.7865 16.3568 16.2432 16.8792 15.5703 16.8792C15.4106 16.8794 15.2523 16.8493 15.1047 16.7906C14.957 16.7319 14.8229 16.6458 14.7099 16.5371C14.5969 16.4285 14.5073 16.2995 14.4463 16.1575C14.3852 16.0156 14.3539 15.8634 14.3541 15.7098V15.7098Z" fill="white"/>
</svg>
