<svg width="27" height="37" viewBox="0 0 27 37" fill="none" xmlns="http://www.w3.org/2000/svg">
<path d="M19.1696 13.388C17.2895 13.0611 15.6935 14.8727 15.9814 17.0074C16.1609 18.3372 17.1185 19.4242 18.2898 19.6278C20.1699 19.9546 21.7659 18.1428 21.478 16.0084C21.2985 14.6786 20.3409 13.5915 19.1696 13.388ZM26.3461 35.3394C25.7264 36.4885 24.3854 36.619 23.6022 35.7299L18.4895 29.9256L13.3742 35.7331C12.591 36.6222 11.2502 36.492 10.6303 35.3426C10.2035 34.5512 10.3814 33.5139 10.9595 32.8575L16.0159 27.1172L1.42697 10.5551C0.643765 9.66595 0.75849 8.14359 1.77091 7.44027C2.46824 6.95555 3.38178 7.1575 3.9599 7.81382L10.4327 15.1622C10.6541 13.1669 11.3986 11.2407 12.683 9.72181C12.9127 9.45005 13.1561 9.20406 13.4052 8.96962L20.7937 0.581702C21.5769 -0.307442 22.9179 -0.177201 23.5376 0.972161C23.9646 1.76356 23.7867 2.80093 23.2083 3.45725L20.1945 6.87875C21.1263 7.05062 22.0384 7.39516 22.8883 7.91962C24.0507 8.63663 24.0951 10.6177 22.8391 11.4257C22.3277 11.7547 21.6857 11.731 21.1667 11.4168C19.3146 10.2951 16.9872 10.6061 15.3969 12.3253L15.0695 12.6967C14.8746 12.9497 14.6872 13.2166 14.524 13.5193C13.5762 15.278 13.5814 17.5772 14.5356 19.3313C16.0058 22.0337 18.8568 22.7233 21.0645 21.4571C21.5842 21.0822 22.2361 21.0551 22.78 21.3639C22.7986 21.3741 22.8159 21.3851 22.8341 21.3964C22.9779 21.485 23.1158 21.5895 23.2372 21.7275C23.2384 21.7289 23.2391 21.7302 23.2403 21.7318C23.2459 21.7383 23.2542 21.7412 23.2599 21.7479C24.0649 22.6618 23.9187 24.215 22.9474 24.8649L20.9633 27.1172L26.0168 32.8543C26.595 33.5106 26.7731 34.5477 26.3461 35.3394" fill="#C2AD60"/>
</svg>
