<svg width="130" height="84" viewBox="0 0 130 84" fill="none" xmlns="http://www.w3.org/2000/svg">
<path d="M1.98586 58.9988V64.4087H2.63778C2.8948 64.4087 3.14922 64.4115 3.40105 64.4169C3.65289 64.4223 3.87527 64.4248 4.06819 64.4248H4.43105C4.76672 64.4248 5.1053 64.3897 5.44615 64.3184C5.78733 64.2475 6.09581 64.1029 6.37257 63.8841C6.649 63.6653 6.87397 63.3542 7.04682 62.9496C7.21967 62.5453 7.30642 62.0097 7.30642 61.343C7.30642 60.6766 7.21967 60.1438 7.04682 59.7446C6.87397 59.3461 6.649 59.0396 6.37257 58.8269C6.09581 58.6135 5.78733 58.4742 5.44615 58.4087C5.1053 58.3432 4.76672 58.3102 4.43105 58.3102H2.50442C2.46493 58.3102 2.41573 58.316 2.35649 58.3267C2.29693 58.3378 2.23996 58.365 2.18591 58.4087C2.13153 58.4527 2.08459 58.5208 2.0451 58.6135C2.00561 58.7066 1.98586 58.8348 1.98586 58.9988ZM0.103582 68.9825C0.133362 68.9825 0.175119 68.9771 0.229499 68.966C0.28388 68.9553 0.333405 68.9277 0.377751 68.884C0.422097 68.8403 0.464178 68.7723 0.503668 68.6792C0.543159 68.5861 0.562904 68.4636 0.562904 68.3104V58.9988C0.562904 58.8459 0.543159 58.7227 0.503668 58.63C0.464178 58.5372 0.422097 58.4692 0.377751 58.4248C0.333405 58.3815 0.28388 58.3539 0.229499 58.3432C0.175119 58.3324 0.133362 58.3267 0.103582 58.3267C0.0343116 58.3267 0 58.2558 0 58.1137C0 58.0592 0.00971083 57.9934 0.0297799 57.9171H4.59419C5.0684 57.9171 5.55492 57.9579 6.05373 58.0399C6.55254 58.1219 7.00248 58.2859 7.40256 58.5315C7.80265 58.7775 8.13087 59.1248 8.38789 59.5727C8.6449 60.0207 8.77341 60.6111 8.77341 61.343C8.77341 61.8786 8.71158 62.3377 8.58793 62.7204C8.4646 63.1028 8.29402 63.4197 8.07682 63.6711C7.85962 63.9224 7.61232 64.1219 7.33588 64.2694C7.05912 64.4169 6.76262 64.529 6.44669 64.6052L8.07682 68.3104C8.22507 68.638 8.37073 68.8324 8.5138 68.8922C8.6572 68.9524 8.76337 68.9825 8.83264 68.9825C8.88217 68.9825 8.92166 69.0018 8.95144 69.0398C8.98089 69.0781 9.0055 69.1243 9.02524 69.1794C9.04499 69.2446 9.06473 69.3158 9.08448 69.3921H6.58005C6.53053 69.3158 6.49104 69.2446 6.46158 69.1794C6.44151 69.1243 6.42921 69.0781 6.42436 69.0398C6.41918 69.0018 6.43666 68.9825 6.47647 68.9825C6.50593 68.9825 6.5451 68.9771 6.59495 68.966C6.64415 68.9553 6.68364 68.9277 6.71342 68.884C6.74287 68.8403 6.75776 68.7723 6.75776 68.6792C6.75776 68.5861 6.72313 68.4636 6.65418 68.3104L5.14253 64.8351H4.94249H4.55697C4.40386 64.8351 4.23327 64.8322 4.04585 64.8265C3.85811 64.8215 3.67037 64.8186 3.48263 64.8186H1.98586V68.2775C1.99557 68.6054 2.0574 68.8049 2.17102 68.8758C2.28463 68.947 2.37592 68.9825 2.44519 68.9825C2.49439 68.9825 2.52417 69.0018 2.5342 69.0398C2.54391 69.0781 2.54909 69.1243 2.54909 69.1794C2.54909 69.2446 2.53906 69.3158 2.51931 69.3921H0.0297799C0.00971083 69.3158 0 69.2446 0 69.1794C0 69.1243 0.00744504 69.0781 0.022335 69.0398C0.0369012 69.0018 0.0640915 68.9825 0.103582 68.9825" fill="#C2AD60"/>
<path d="M15.961 64.6217C15.635 63.5726 15.3434 62.6273 15.0867 61.7855C14.9776 61.4361 14.8692 61.0891 14.7607 60.7447C14.6517 60.4006 14.5581 60.0944 14.4788 59.8266C14.3998 59.5588 14.3331 59.3404 14.2791 59.1706C14.2244 59.0016 14.1975 58.9114 14.1975 58.9003L12.4191 64.6217H15.961ZM10.1811 68.9825C10.2501 68.9825 10.354 68.947 10.4922 68.8758C10.6307 68.8049 10.7492 68.6162 10.8483 68.3104L13.9454 58.3761C13.9256 58.3213 13.8813 58.2938 13.812 58.2938C13.7625 58.2938 13.7256 58.2748 13.701 58.2365C13.676 58.1985 13.654 58.152 13.6343 58.0972C13.6243 58.0428 13.6194 57.9823 13.6194 57.9167H14.8494C15.0174 57.9167 15.1482 58.007 15.2421 58.1874C15.336 58.3675 15.4324 58.6053 15.5311 58.9003L18.4509 68.3104C18.5593 68.638 18.6804 68.8324 18.8137 68.8922C18.9474 68.9524 19.0484 68.9825 19.1177 68.9825C19.1669 68.9825 19.2015 69.0015 19.2216 69.0398C19.241 69.0781 19.2607 69.1243 19.2808 69.1794C19.3002 69.2446 19.3151 69.3158 19.3252 69.3921H16.8945C16.855 69.3158 16.8253 69.2446 16.8058 69.1794C16.7858 69.1243 16.7783 69.0781 16.7835 69.0398C16.7884 69.0015 16.8107 68.9825 16.8502 68.9825C16.88 68.9825 16.9191 68.9771 16.9687 68.966C17.0182 68.9553 17.0599 68.9277 17.0946 68.884C17.1292 68.8403 17.1516 68.7723 17.1613 68.6792C17.1713 68.5861 17.1516 68.4633 17.102 68.3104L16.1093 65.0972H12.2709L11.2629 68.3104C11.2134 68.4744 11.1914 68.6026 11.1962 68.6953C11.2011 68.7884 11.2208 68.8539 11.2555 68.8922C11.2901 68.9306 11.3322 68.9553 11.3817 68.966C11.4309 68.9771 11.4756 68.9825 11.5151 68.9825C11.5643 68.9825 11.5866 69.0015 11.5817 69.0398C11.5766 69.0781 11.5643 69.1243 11.5445 69.1794C11.5248 69.2446 11.495 69.3158 11.4558 69.3921H9.97363C9.98334 69.3158 9.99823 69.2446 10.0183 69.1794C10.0377 69.1243 10.0601 69.0781 10.085 69.0398C10.1093 69.0015 10.1416 68.9825 10.1811 68.9825" fill="#C2AD60"/>
<path d="M20.392 57.9172H28.4837L27.9946 60.163C27.8661 60.1741 27.7525 60.1687 27.6538 60.1468C27.5745 60.125 27.5003 60.0842 27.4314 60.0237C27.3621 59.9639 27.3278 59.8736 27.3278 59.7533C27.3472 59.5235 27.3204 59.3187 27.2462 59.1386C27.1721 58.9581 27.0734 58.8081 26.9497 58.6874C26.8261 58.5675 26.6879 58.4772 26.5348 58.4171C26.3817 58.3573 26.2311 58.3272 26.0829 58.3272H22.8223C22.7433 58.3272 22.6469 58.3655 22.5336 58.4418C22.4196 58.5184 22.3578 58.7096 22.3481 59.0154V63.4581H23.6079C23.7562 63.4581 23.9119 63.4449 24.0747 63.417C24.2378 63.3901 24.3909 63.3461 24.534 63.2859C24.6774 63.2261 24.7959 63.1384 24.8898 63.0238C24.9836 62.9089 25.0306 62.7642 25.0306 62.5895C25.0306 62.4803 25.0552 62.4065 25.1047 62.3682C25.1539 62.3299 25.2034 62.3052 25.2529 62.2945C25.3219 62.2834 25.396 62.2887 25.4753 62.3109V64.9989C25.396 65.0211 25.3219 65.0318 25.2529 65.0318C25.2034 65.0211 25.1539 64.9939 25.1047 64.9502C25.0552 64.9065 25.0306 64.8299 25.0306 64.7203C25.0306 64.5459 24.9836 64.4034 24.8898 64.2942C24.7959 64.185 24.68 64.0976 24.5415 64.0318C24.4032 63.9666 24.2498 63.9225 24.0821 63.9007C23.9141 63.8789 23.7562 63.8678 23.6079 63.8678H22.3481V68.3105C22.3481 68.4745 22.3653 68.6031 22.4002 68.6958C22.4345 68.7885 22.4763 68.8544 22.5261 68.8924C22.5753 68.931 22.6271 68.9554 22.6815 68.9661C22.7359 68.9776 22.778 68.9826 22.8074 68.9826C22.857 68.9826 22.8867 69.0019 22.8964 69.0399C22.9062 69.0786 22.9113 69.1248 22.9113 69.1795C22.9113 69.2451 22.9013 69.3163 22.8816 69.3926H20.392C20.372 69.3163 20.3622 69.2451 20.3622 69.1795C20.3622 69.1248 20.3697 69.0786 20.3846 69.0399C20.3991 69.0019 20.4263 68.9826 20.4661 68.9826C20.4956 68.9826 20.5377 68.9776 20.5921 68.9661C20.6461 68.9554 20.6956 68.9282 20.7403 68.8845C20.7847 68.8408 20.8264 68.7724 20.8662 68.6797C20.9054 68.5866 20.9255 68.4638 20.9255 68.3105V58.9989C20.9255 58.8464 20.9054 58.7232 20.8662 58.6301C20.8264 58.5374 20.7847 58.4693 20.7403 58.4253C20.6956 58.382 20.6461 58.3544 20.5921 58.3433C20.5377 58.3326 20.4956 58.3272 20.4661 58.3272C20.3969 58.3272 20.3622 58.2559 20.3622 58.1142C20.3622 58.0594 20.372 57.9938 20.392 57.9172" fill="#C2AD60"/>
<path d="M32.5742 64.6217C32.2482 63.5726 31.9566 62.6273 31.6999 61.7855C31.5908 61.4361 31.4823 61.0891 31.3739 60.7447C31.2648 60.4006 31.1713 60.0944 31.092 59.8266C31.013 59.5588 30.9463 59.3404 30.8922 59.1706C30.8375 59.0016 30.8107 58.9114 30.8107 58.9003L29.0323 64.6217H32.5742ZM26.7943 68.9825C26.8632 68.9825 26.9671 68.947 27.1053 68.8758C27.2439 68.8049 27.3624 68.6162 27.4614 68.3104L30.5585 58.3761C30.5388 58.3213 30.4944 58.2938 30.4252 58.2938C30.3756 58.2938 30.3387 58.2748 30.3141 58.2365C30.2892 58.1985 30.2672 58.152 30.2474 58.0972C30.2374 58.0428 30.2326 57.9823 30.2326 57.9167H31.4626C31.6306 57.9167 31.7614 58.007 31.8552 58.1874C31.9491 58.3675 32.0456 58.6053 32.1443 58.9003L35.064 68.3104C35.1725 68.638 35.2935 68.8324 35.4269 68.8922C35.5606 68.9524 35.6616 68.9825 35.7308 68.9825C35.78 68.9825 35.8147 69.0015 35.8347 69.0398C35.8542 69.0781 35.8739 69.1243 35.894 69.1794C35.9134 69.2446 35.9283 69.3158 35.9383 69.3921H33.5077C33.4682 69.3158 33.4384 69.2446 33.419 69.1794C33.3989 69.1243 33.3915 69.0781 33.3967 69.0398C33.4015 69.0015 33.4239 68.9825 33.4634 68.9825C33.4931 68.9825 33.5323 68.9771 33.5818 68.966C33.6313 68.9553 33.6731 68.9277 33.7077 68.884C33.7424 68.8403 33.7647 68.7723 33.7744 68.6792C33.7845 68.5861 33.7647 68.4633 33.7152 68.3104L32.7224 65.0972H28.884L27.8761 68.3104C27.8265 68.4744 27.8045 68.6026 27.8094 68.6953C27.8142 68.7884 27.834 68.8539 27.8686 68.8922C27.9033 68.9306 27.9453 68.9553 27.9949 68.966C28.0441 68.9771 28.0887 68.9825 28.1282 68.9825C28.1774 68.9825 28.1998 69.0015 28.1949 69.0398C28.1897 69.0781 28.1774 69.1243 28.1577 69.1794C28.1379 69.2446 28.1082 69.3158 28.069 69.3921H26.5868C26.5965 69.3158 26.6114 69.2446 26.6315 69.1794C26.6509 69.1243 26.6732 69.0781 26.6981 69.0398C26.7224 69.0015 26.7548 68.9825 26.7943 68.9825" fill="#C2AD60"/>
<path d="M37.0052 57.9172H45.1115L44.6078 60.1794C44.4793 60.1905 44.3657 60.1794 44.267 60.1468C44.1877 60.125 44.1135 60.0842 44.0446 60.0237C43.9753 59.9639 43.941 59.8736 43.941 59.7533C43.9604 59.5235 43.9384 59.3215 43.8743 59.1468C43.8099 58.9721 43.7261 58.8245 43.6222 58.7039C43.5186 58.5839 43.3949 58.4912 43.2519 58.4253C43.1085 58.3598 42.9628 58.3272 42.8146 58.3272H39.4061C39.3267 58.3383 39.2355 58.382 39.1319 58.4582C39.0283 58.5349 38.9762 58.7203 38.9762 59.0154V63.4581H40.2655C40.4137 63.4581 40.5668 63.4449 40.7251 63.417C40.8827 63.3901 41.0313 63.3432 41.1695 63.278C41.3078 63.2122 41.4217 63.1248 41.5104 63.0156C41.5994 62.9064 41.6438 62.7642 41.6438 62.5895C41.6438 62.4803 41.6684 62.4065 41.7179 62.3682C41.7671 62.3299 41.8166 62.3052 41.8661 62.2945C41.9351 62.2834 42.0092 62.2887 42.0885 62.3109V64.9989C42.0092 65.0211 41.9403 65.0264 41.881 65.0153C41.8315 65.0046 41.782 64.9802 41.7328 64.9416C41.6832 64.9036 41.6535 64.8299 41.6438 64.7203C41.6438 64.5674 41.6043 64.4364 41.5253 64.3268C41.446 64.2179 41.3424 64.1306 41.2139 64.0647C41.0854 63.9992 40.9397 63.9501 40.7769 63.9172C40.6138 63.8842 40.4483 63.8678 40.2804 63.8678H38.9762V68.3105C38.9762 68.4638 38.9911 68.5837 39.0209 68.6711C39.0503 68.7588 39.0875 68.8272 39.1319 68.8759C39.1762 68.9253 39.2209 68.9554 39.2652 68.9661C39.3096 68.9776 39.3517 68.9826 39.3912 68.9826H42.7702C42.9185 68.9826 43.0667 68.9497 43.2146 68.8845C43.3629 68.8186 43.4914 68.7259 43.6002 68.6059C43.7086 68.4856 43.7976 68.3352 43.8669 68.1548C43.9358 67.9747 43.9604 67.7699 43.941 67.54C43.941 67.42 43.9753 67.3327 44.0446 67.2779C44.1135 67.2231 44.1877 67.1852 44.267 67.163C44.3657 67.1415 44.4793 67.1357 44.6078 67.1465L45.1115 69.3926H37.0052C36.9851 69.3163 36.9754 69.2451 36.9754 69.1795C36.9754 69.1248 36.9829 69.0786 36.9978 69.0399C37.0123 69.0019 37.0395 68.9826 37.0793 68.9826C37.1088 68.9826 37.1509 68.9776 37.2053 68.9661C37.2593 68.9554 37.3088 68.9282 37.3535 68.8845C37.3979 68.8408 37.4396 68.7724 37.4794 68.6797C37.5186 68.5866 37.5387 68.4638 37.5387 68.3105V58.9989C37.5387 58.8464 37.5186 58.7232 37.4794 58.6301C37.4396 58.5374 37.3979 58.4693 37.3535 58.4253C37.3088 58.382 37.2593 58.3544 37.2053 58.3433C37.1509 58.3326 37.1088 58.3272 37.0793 58.3272C37.0101 58.3272 36.9754 58.2559 36.9754 58.1142C36.9754 58.0594 36.9851 57.9938 37.0052 57.9172" fill="#C2AD60"/>
<path d="M46.5493 57.9661H49.0388C49.0586 58.0427 49.0686 58.1078 49.0686 58.1626C49.0686 58.2174 49.0634 58.264 49.0537 58.3019C49.044 58.3406 49.0142 58.3596 48.9647 58.3596C48.8958 58.3596 48.8042 58.395 48.6909 58.4659C48.5769 58.5372 48.5151 58.7312 48.5054 59.0477V68.3425C48.5054 68.649 48.5575 68.8374 48.6611 68.9086C48.765 68.9799 48.856 69.015 48.9353 69.015H52.2402C52.6254 69.015 52.9267 68.8868 53.1443 68.6297C53.3615 68.373 53.4799 68.0095 53.5 67.5394C53.5392 67.4195 53.5935 67.3346 53.6628 67.2855C53.7318 67.2365 53.801 67.201 53.8703 67.1788C53.9593 67.1574 54.0532 67.1574 54.1519 67.1788L54.641 69.4414H46.5493C46.5292 69.3648 46.5195 69.2939 46.5195 69.228C46.5195 69.0862 46.5542 69.015 46.6234 69.015C46.6529 69.015 46.695 69.0096 46.7494 68.9985C46.8034 68.9877 46.8529 68.9605 46.8976 68.9165C46.942 68.8732 46.9837 68.8048 47.0235 68.7117C47.0627 68.619 47.0828 68.4961 47.0828 68.3425V59.0316C47.0828 58.8787 47.0627 58.7556 47.0235 58.6625C46.9837 58.5701 46.942 58.5013 46.8976 58.4577C46.8529 58.4143 46.8034 58.3868 46.7494 58.376C46.695 58.3649 46.6529 58.3596 46.6234 58.3596C46.5836 58.3596 46.5564 58.3406 46.5419 58.3019C46.527 58.264 46.5195 58.2174 46.5195 58.1626C46.5195 58.1078 46.5292 58.0427 46.5493 57.9661" fill="#C2AD60"/>
<path d="M65.6817 58.163C66.0374 58.163 66.4051 58.1959 66.7858 58.2611C67.1658 58.327 67.5316 58.4308 67.8825 58.573C68.233 58.7151 68.5567 58.8898 68.8532 59.0975C69.1494 59.3052 69.3915 59.5565 69.5793 59.8516L68.4677 60.4581C68.2401 59.9336 67.8948 59.5046 67.4303 59.1709C66.9658 58.8379 66.3779 58.6714 65.6668 58.6714C65.1628 58.6714 64.6814 58.7889 64.2218 59.0238C63.7625 59.259 63.3572 59.5974 63.0066 60.0399C62.6558 60.4828 62.379 61.0235 62.1767 61.663C61.9741 62.3025 61.8727 63.0265 61.8727 63.8353C61.8727 64.622 61.9789 65.3298 62.1916 65.9582C62.4039 66.5866 62.6855 67.1165 63.0364 67.5484C63.387 67.9802 63.7897 68.3107 64.2441 68.5398C64.6983 68.7693 65.168 68.8843 65.6519 68.8843C66.2248 68.8843 66.756 68.7668 67.2451 68.5319C67.7342 68.2971 68.112 67.9938 68.3787 67.6221L69.2235 68.4088C68.7985 68.7478 68.2825 69.0017 67.6746 69.1711C67.0671 69.3408 66.4077 69.4253 65.6965 69.4253C65.0838 69.4253 64.4639 69.3021 63.8366 69.0565C63.209 68.8105 62.6435 68.4496 62.1398 67.9744C61.6358 67.4989 61.2231 66.9142 60.9023 66.2203C60.5812 65.5264 60.4207 64.7365 60.4207 63.8518C60.4207 62.9226 60.5835 62.1059 60.9098 61.4009C61.2357 60.6959 61.6555 60.1029 62.1693 59.6221C62.683 59.1412 63.2484 58.7778 63.8664 58.5318C64.4837 58.2862 65.089 58.163 65.6817 58.163Z" fill="#C2AD60"/>
<path d="M75.9963 64.6217C75.67 63.5726 75.3787 62.6273 75.1217 61.7855C75.0129 61.4361 74.9045 61.0891 74.7957 60.7447C74.6869 60.4006 74.5931 60.0944 74.5141 59.8266C74.4351 59.5588 74.3684 59.3404 74.314 59.1706C74.2597 59.0016 74.2325 58.9114 74.2325 58.9003L72.4544 64.6217H75.9963ZM70.2164 68.9825C70.285 68.9825 70.3893 68.947 70.5275 68.8758C70.6657 68.8049 70.7842 68.6162 70.8832 68.3104L73.9803 58.3761C73.9606 58.3213 73.9162 58.2938 73.8473 58.2938C73.7978 58.2938 73.7609 58.2748 73.7362 58.2365C73.7113 58.1985 73.689 58.152 73.6696 58.0972C73.6592 58.0428 73.6547 57.9823 73.6547 57.9167H74.8844C75.0524 57.9167 75.1832 58.007 75.2774 58.1874C75.3709 58.3675 75.4674 58.6053 75.5664 58.9003L78.4858 68.3104C78.5943 68.638 78.7156 68.8324 78.849 68.8922C78.9824 68.9524 79.0837 68.9825 79.1529 68.9825C79.2021 68.9825 79.2368 69.0015 79.2565 69.0398C79.2763 69.0781 79.2957 69.1243 79.3158 69.1794C79.3355 69.2446 79.3501 69.3158 79.3604 69.3921H76.9298C76.8903 69.3158 76.8605 69.2446 76.8408 69.1794C76.8211 69.1243 76.8133 69.0781 76.8188 69.0398C76.8236 69.0015 76.8457 68.9825 76.8855 68.9825C76.9149 68.9825 76.9544 68.9771 77.0039 68.966C77.0535 68.9553 77.0952 68.9277 77.1299 68.884C77.1642 68.8403 77.1868 68.7723 77.1965 68.6792C77.2063 68.5861 77.1868 68.4633 77.1373 68.3104L76.1442 65.0972H72.3062L71.2982 68.3104C71.2487 68.4744 71.2266 68.6026 71.2315 68.6953C71.2364 68.7884 71.2558 68.8539 71.2907 68.8922C71.3251 68.9306 71.3671 68.9553 71.417 68.966C71.4662 68.9771 71.5105 68.9825 71.5503 68.9825C71.5995 68.9825 71.6216 69.0015 71.617 69.0398C71.6118 69.0781 71.5995 69.1243 71.5795 69.1794C71.5597 69.2446 71.5303 69.3158 71.4908 69.3921H70.0089C70.0186 69.3158 70.0332 69.2446 70.0533 69.1794C70.073 69.1243 70.0953 69.0781 70.1199 69.0398C70.1445 69.0015 70.1766 68.9825 70.2164 68.9825" fill="#C2AD60"/>
<path d="M80.8421 65.9989C80.8421 66.4143 80.9334 66.802 81.1166 67.163C81.2992 67.5235 81.5462 67.835 81.8576 68.0971C82.1686 68.3596 82.5244 68.5673 82.9245 68.7205C83.3245 68.8734 83.7369 68.9497 84.1619 68.9497C84.4584 68.9497 84.7669 68.9167 85.088 68.8516C85.4091 68.7857 85.7034 68.6629 85.9701 68.4828C86.2368 68.3023 86.454 68.0484 86.622 67.7205C86.79 67.3925 86.8742 66.9718 86.8742 66.4579C86.8742 66.1196 86.78 65.8296 86.5926 65.5889C86.4048 65.349 86.1601 65.136 85.8587 64.9498C85.5574 64.7643 85.2117 64.5946 84.8213 64.4414C84.4309 64.2888 84.036 64.1331 83.6359 63.9745C83.2359 63.8158 82.8406 63.6468 82.4502 63.4664C82.0599 63.2859 81.7138 63.0729 81.4128 62.8269C81.1114 62.5809 80.8667 62.2916 80.6793 61.9582C80.4916 61.6249 80.3977 61.2339 80.3977 60.7856C80.3977 60.2177 80.5311 59.7508 80.7978 59.3842C81.0645 59.0182 81.3905 58.7261 81.776 58.5073C82.1612 58.2889 82.5739 58.136 83.0135 58.0483C83.4527 57.9609 83.8509 57.9172 84.2066 57.9172C85.1547 57.9172 85.9202 58.0483 86.5035 58.3104C87.0865 58.5728 87.5212 58.8954 87.8077 59.2778L87.1852 60.6875C87.1852 60.4691 87.126 60.226 87.0075 59.9581C86.8891 59.6903 86.7084 59.4336 86.4663 59.1876C86.2242 58.9416 85.9157 58.7368 85.5402 58.5728C85.1647 58.4088 84.72 58.3268 84.2066 58.3268C83.8803 58.3268 83.5615 58.3655 83.2504 58.4418C82.9393 58.518 82.66 58.6412 82.4133 58.8106C82.166 58.9799 81.966 59.1958 81.8129 59.4579C81.6595 59.7204 81.5834 60.0376 81.5834 60.4089C81.5834 60.8787 81.7514 61.2615 82.0874 61.5565C82.4231 61.8515 82.8406 62.1058 83.3394 62.3188C83.8382 62.5315 84.3817 62.7313 84.9696 62.9171C85.5574 63.103 86.1035 63.3296 86.6075 63.5974C87.1111 63.8653 87.5335 64.1986 87.8744 64.5975C88.2152 64.9964 88.3904 65.513 88.4007 66.1464C88.4101 66.8679 88.2868 67.4444 88.0301 67.8759C87.7731 68.3077 87.4397 68.6356 87.0295 68.8594C86.6198 69.0836 86.1627 69.2286 85.6587 69.2941C85.1547 69.3596 84.6608 69.3926 84.1768 69.3926C83.5544 69.3926 82.9934 69.3267 82.4946 69.1956C81.9955 69.0646 81.5685 68.9117 81.2128 68.7366C80.857 68.5619 80.5851 68.3872 80.3977 68.2121C80.21 68.0373 80.1161 67.9009 80.1161 67.8021L80.8421 65.9989Z" fill="#C2AD60"/>
<path d="M90.6384 65.9989C90.6384 66.4143 90.7297 66.802 90.9129 67.163C91.0955 67.5235 91.3424 67.835 91.6538 68.0971C91.9649 68.3596 92.3206 68.5673 92.7207 68.7205C93.1208 68.8734 93.5332 68.9497 93.9582 68.9497C94.2547 68.9497 94.5632 68.9167 94.8843 68.8516C95.2054 68.7857 95.4996 68.6629 95.7664 68.4828C96.0331 68.3023 96.2503 68.0484 96.4183 67.7205C96.5863 67.3925 96.6704 66.9718 96.6704 66.4579C96.6704 66.1196 96.5762 65.8296 96.3888 65.5889C96.2011 65.349 95.9564 65.136 95.655 64.9498C95.3537 64.7643 95.0079 64.5946 94.6176 64.4414C94.2272 64.2888 93.8323 64.1331 93.4322 63.9745C93.0321 63.8158 92.6369 63.6468 92.2465 63.4664C91.8561 63.2859 91.5101 63.0729 91.2091 62.8269C90.9077 62.5809 90.663 62.2916 90.4756 61.9582C90.2878 61.6249 90.194 61.2339 90.194 60.7856C90.194 60.2177 90.3273 59.7508 90.5941 59.3842C90.8608 59.0182 91.1867 58.7261 91.5723 58.5073C91.9575 58.2889 92.3702 58.136 92.8097 58.0483C93.249 57.9609 93.6471 57.9172 94.0029 57.9172C94.951 57.9172 95.7165 58.0483 96.2998 58.3104C96.8828 58.5728 97.3175 58.8954 97.604 59.2778L96.9815 60.6875C96.9815 60.4691 96.9223 60.226 96.8038 59.9581C96.6853 59.6903 96.5047 59.4336 96.2626 59.1876C96.0205 58.9416 95.712 58.7368 95.3365 58.5728C94.961 58.4088 94.5163 58.3268 94.0029 58.3268C93.6766 58.3268 93.3578 58.3655 93.0467 58.4418C92.7356 58.518 92.4563 58.6412 92.2096 58.8106C91.9623 58.9799 91.7623 59.1958 91.6092 59.4579C91.4557 59.7204 91.3797 60.0376 91.3797 60.4089C91.3797 60.8787 91.5477 61.2615 91.8837 61.5565C92.2193 61.8515 92.6369 62.1058 93.1357 62.3188C93.6345 62.5315 94.178 62.7313 94.7658 62.9171C95.3537 63.103 95.8997 63.3296 96.4037 63.5974C96.9074 63.8653 97.3298 64.1986 97.6707 64.5975C98.0115 64.9964 98.1866 65.513 98.197 66.1464C98.2064 66.8679 98.083 67.4444 97.8264 67.8759C97.5693 68.3077 97.2359 68.6356 96.8258 68.8594C96.416 69.0836 95.959 69.2286 95.455 69.2941C94.951 69.3596 94.457 69.3926 93.9731 69.3926C93.3506 69.3926 92.7897 69.3267 92.2909 69.1956C91.7917 69.0646 91.3648 68.9117 91.009 68.7366C90.6533 68.5619 90.3814 68.3872 90.194 68.2121C90.0062 68.0373 89.9124 67.9009 89.9124 67.8021L90.6384 65.9989Z" fill="#C2AD60"/>
<path d="M104.629 64.6217C104.302 63.5726 104.011 62.6273 103.754 61.7855C103.645 61.4361 103.537 61.0891 103.428 60.7447C103.319 60.4006 103.225 60.0944 103.146 59.8266C103.067 59.5588 103.001 59.3404 102.946 59.1706C102.892 59.0016 102.865 58.9114 102.865 58.9003L101.087 64.6217H104.629ZM98.8487 68.9825C98.9173 68.9825 99.0216 68.947 99.1598 68.8758C99.298 68.8049 99.4165 68.6162 99.5155 68.3104L102.613 58.3761C102.593 58.3213 102.549 58.2938 102.48 58.2938C102.43 58.2938 102.393 58.2748 102.369 58.2365C102.344 58.1985 102.321 58.152 102.302 58.0972C102.292 58.0428 102.287 57.9823 102.287 57.9167H103.517C103.685 57.9167 103.815 58.007 103.91 58.1874C104.003 58.3675 104.1 58.6053 104.199 58.9003L107.118 68.3104C107.227 68.638 107.348 68.8324 107.481 68.8922C107.615 68.9524 107.716 68.9825 107.785 68.9825C107.834 68.9825 107.869 69.0015 107.889 69.0398C107.909 69.0781 107.928 69.1243 107.948 69.1794C107.968 69.2446 107.982 69.3158 107.993 69.3921H105.562C105.523 69.3158 105.493 69.2446 105.473 69.1794C105.453 69.1243 105.446 69.0781 105.451 69.0398C105.456 69.0015 105.478 68.9825 105.518 68.9825C105.547 68.9825 105.587 68.9771 105.636 68.966C105.686 68.9553 105.728 68.9277 105.762 68.884C105.796 68.8403 105.819 68.7723 105.829 68.6792C105.839 68.5861 105.819 68.4633 105.77 68.3104L104.777 65.0972H100.938L99.9305 68.3104C99.881 68.4744 99.859 68.6026 99.8638 68.6953C99.8687 68.7884 99.8881 68.8539 99.9231 68.8922C99.9574 68.9306 99.9995 68.9553 100.049 68.966C100.099 68.9771 100.143 68.9825 100.183 68.9825C100.232 68.9825 100.254 69.0015 100.249 69.0398C100.244 69.0781 100.232 69.1243 100.212 69.1794C100.192 69.2446 100.163 69.3158 100.123 69.3921H98.6412C98.6509 69.3158 98.6655 69.2446 98.6856 69.1794C98.7053 69.1243 98.7277 69.0781 98.7523 69.0398C98.7769 69.0015 98.8089 68.9825 98.8487 68.9825" fill="#C2AD60"/>
<path d="M111.016 58.9988V64.4087H111.668C111.925 64.4087 112.179 64.4115 112.431 64.4169C112.683 64.4223 112.905 64.4248 113.098 64.4248H113.461C113.797 64.4248 114.136 64.3897 114.476 64.3184C114.817 64.2475 115.126 64.1029 115.403 63.8841C115.679 63.6653 115.904 63.3542 116.077 62.9496C116.25 62.5453 116.336 62.0097 116.336 61.343C116.336 60.6766 116.25 60.1438 116.077 59.7446C115.904 59.3461 115.679 59.0396 115.403 58.8269C115.126 58.6135 114.817 58.4742 114.476 58.4087C114.136 58.3432 113.797 58.3102 113.461 58.3102H111.535C111.495 58.3102 111.445 58.316 111.386 58.3267C111.327 58.3378 111.27 58.365 111.216 58.4087C111.162 58.4527 111.115 58.5208 111.075 58.6135C111.036 58.7066 111.016 58.8348 111.016 58.9988ZM109.134 68.9825C109.163 68.9825 109.205 68.9771 109.259 68.966C109.314 68.9553 109.363 68.9277 109.408 68.884C109.452 68.8403 109.494 68.7723 109.534 68.6792C109.573 68.5861 109.593 68.4636 109.593 68.3104V58.9988C109.593 58.8459 109.573 58.7227 109.534 58.63C109.494 58.5372 109.452 58.4692 109.408 58.4248C109.363 58.3815 109.314 58.3539 109.259 58.3432C109.205 58.3324 109.163 58.3267 109.134 58.3267C109.065 58.3267 109.03 58.2558 109.03 58.1137C109.03 58.0592 109.04 57.9934 109.059 57.9171H113.624C114.098 57.9171 114.585 57.9579 115.084 58.0399C115.583 58.1219 116.032 58.2859 116.433 58.5315C116.833 58.7775 117.161 59.1248 117.418 59.5727C117.675 60.0207 117.803 60.6111 117.803 61.343C117.803 61.8786 117.742 62.3377 117.618 62.7204C117.495 63.1028 117.324 63.4197 117.107 63.6711C116.89 63.9224 116.642 64.1219 116.366 64.2694C116.089 64.4169 115.793 64.529 115.477 64.6052L117.107 68.3104C117.255 68.638 117.401 68.8324 117.544 68.8922C117.687 68.9524 117.793 68.9825 117.863 68.9825C117.912 68.9825 117.952 69.0018 117.981 69.0398C118.011 69.0781 118.035 69.1243 118.055 69.1794C118.075 69.2446 118.095 69.3158 118.115 69.3921H115.61C115.561 69.3158 115.521 69.2446 115.491 69.1794C115.472 69.1243 115.46 69.0781 115.454 69.0398C115.449 69.0018 115.467 68.9825 115.506 68.9825C115.536 68.9825 115.575 68.9771 115.625 68.966C115.674 68.9553 115.714 68.9277 115.743 68.884C115.773 68.8403 115.788 68.7723 115.788 68.6792C115.788 68.5861 115.753 68.4636 115.684 68.3104L114.173 64.8351H113.972H113.587C113.434 64.8351 113.263 64.8322 113.076 64.8265C112.888 64.8215 112.7 64.8186 112.513 64.8186H111.016V68.2775C111.026 68.6054 111.087 68.8049 111.201 68.8758C111.315 68.947 111.406 68.9825 111.475 68.9825C111.524 68.9825 111.554 69.0018 111.564 69.0398C111.574 69.0781 111.579 69.1243 111.579 69.1794C111.579 69.2446 111.569 69.3158 111.549 69.3921H109.059C109.04 69.3158 109.03 69.2446 109.03 69.1794C109.03 69.1243 109.037 69.0781 109.052 69.0398C109.067 69.0018 109.094 68.9825 109.134 68.9825Z" fill="#C2AD60"/>
<path d="M124.798 68.8677C125.342 68.8677 125.845 68.7309 126.31 68.4577C126.774 68.1849 127.175 67.8157 127.511 67.3513C127.846 66.8869 128.11 66.3401 128.303 65.7121C128.496 65.0837 128.592 64.4142 128.592 63.7038C128.592 62.9934 128.498 62.3296 128.311 61.7119C128.123 61.0946 127.861 60.559 127.525 60.1053C127.189 59.652 126.789 59.294 126.325 59.0315C125.86 58.7694 125.352 58.6383 124.798 58.6383C124.255 58.6383 123.753 58.7694 123.294 59.0315C122.835 59.294 122.437 59.652 122.101 60.1053C121.765 60.559 121.503 61.0946 121.316 61.7119C121.128 62.3296 121.034 62.9934 121.034 63.7038C121.034 64.4142 121.128 65.0837 121.316 65.7121C121.503 66.3401 121.765 66.8869 122.101 67.3513C122.437 67.8157 122.835 68.1849 123.294 68.4577C123.753 68.7309 124.255 68.8677 124.798 68.8677ZM119.597 63.7038C119.597 62.9279 119.732 62.2014 120.004 61.5232C120.276 60.8461 120.649 60.2528 121.123 59.7447C121.597 59.2367 122.148 58.8374 122.776 58.5481C123.403 58.2585 124.072 58.1138 124.783 58.1138C125.495 58.1138 126.167 58.2585 126.799 58.5481C127.431 58.8374 127.985 59.2367 128.459 59.7447C128.933 60.2528 129.309 60.8461 129.585 61.5232C129.862 62.2014 130 62.9279 130 63.7038C130 64.4797 129.872 65.2119 129.615 65.9005C129.358 66.589 129 67.1927 128.541 67.7115C128.081 68.231 127.53 68.6439 126.888 68.9497C126.246 69.2558 125.544 69.4087 124.783 69.4087C124.033 69.4087 123.341 69.2558 122.709 68.9497C122.076 68.6439 121.53 68.231 121.071 67.7115C120.612 67.1927 120.251 66.589 119.99 65.9005C119.727 65.2119 119.597 64.4797 119.597 63.7038" fill="#C2AD60"/>
<path d="M44.1494 80.046H42.8181V79.2497H46.2728V80.046H44.9412V83.894H44.1494V80.046Z" fill="#C2AD60"/>
<path d="M51.5692 80.225L50.7894 82.2019H52.349L51.5692 80.225ZM52.6665 83.0186H50.4716L50.1116 83.894H49.2542L51.1374 79.2497H52.0007L53.8843 83.894H53.0203L52.6665 83.0186Z" fill="#C2AD60"/>
<path d="M57.5736 80.046H56.2419V79.2497H59.6967V80.046H58.3653V83.894H57.5736V80.046Z" fill="#C2AD60"/>
<path d="M64.1953 80.046H62.8636V79.2497H66.3188V80.046H64.9871V83.894H64.1953V80.046Z" fill="#C2AD60"/>
<path d="M70.3256 81.6186C70.3434 82.3812 70.7153 83.1976 71.7052 83.1976C72.6944 83.1976 73.0663 82.3748 73.0783 81.6121C73.0906 80.8287 72.6944 79.9532 71.7052 79.9532C70.7153 79.9532 70.3075 80.8359 70.3256 81.6186ZM73.8584 81.5985C73.8461 82.7994 73.1806 84 71.7052 84C70.2295 84 69.5458 82.8259 69.5458 81.605C69.5458 80.3843 70.2534 79.1569 71.7052 79.1569C73.1508 79.1569 73.8704 80.3843 73.8584 81.5985" fill="#C2AD60"/>
<path d="M77.9666 81.6186C77.9844 82.3812 78.3563 83.1976 79.3462 83.1976C80.3354 83.1976 80.7073 82.3748 80.7193 81.6121C80.7316 80.8287 80.3354 79.9532 79.3462 79.9532C78.3563 79.9532 77.9485 80.8359 77.9666 81.6186ZM81.4994 81.5985C81.4871 82.7994 80.8216 84 79.3462 84C77.8705 84 77.1868 82.8259 77.1868 81.605C77.1868 80.3843 77.8944 79.1569 79.3462 79.1569C80.7918 79.1569 81.5114 80.3843 81.4994 81.5985" fill="#C2AD60"/>
<path d="M84.6959 79.2502H87.9228V79.6619L85.7453 83.0653H87.9228V83.8945H84.6418V83.3904L86.7711 80.073H84.6959V79.2502Z" fill="#C2AD60"/>
<path d="M65.9163 17.8508C63.3435 17.4151 61.1596 19.8305 61.5535 22.6767C61.7992 24.4498 63.1095 25.8992 64.7124 26.1706C67.2852 26.6064 69.4691 24.1906 69.0752 21.3447C68.8295 19.5716 67.5192 18.1222 65.9163 17.8508ZM75.7368 47.1194C74.8887 48.6516 73.0537 48.8256 71.982 47.6401L64.9856 39.901L57.9858 47.6444C56.914 48.8299 55.0793 48.6562 54.2309 47.1237C53.647 46.0685 53.8904 44.6854 54.6815 43.8103L61.6008 36.1565L41.6369 14.0737C40.5652 12.8882 40.7222 10.8583 42.1076 9.92059C43.0618 9.2743 44.3119 9.54355 45.103 10.4186L53.9606 20.2165C54.2636 17.5561 55.2823 14.9878 57.0399 12.9626C57.3542 12.6003 57.6873 12.2723 58.0282 11.9597L68.1387 0.775826C69.2105 -0.409699 71.0455 -0.236044 71.8936 1.29644C72.4779 2.35163 72.2344 3.7348 71.443 4.60989L67.3188 9.17189C68.5939 9.40105 69.842 9.86043 71.0051 10.5597C72.5957 11.5157 72.6565 14.1571 70.9377 15.2345C70.2379 15.6731 69.3594 15.6416 68.6492 15.2227C66.1147 13.7271 62.9299 14.1417 60.7537 16.434L60.3057 16.9292C60.0389 17.2665 59.7826 17.6224 59.5592 18.0259C58.2622 20.3708 58.2693 23.4365 59.5751 25.7753C61.5868 29.3785 65.4883 30.2979 68.5094 28.6097C69.2205 28.1099 70.1126 28.0737 70.8568 28.4855C70.8824 28.4991 70.906 28.5137 70.9309 28.5288C71.1277 28.6469 71.3164 28.7862 71.4825 28.9703C71.4841 28.9721 71.4851 28.9739 71.4867 28.976C71.4945 28.9846 71.5058 28.9885 71.5136 28.9975C72.6151 30.2159 72.4151 32.2869 71.086 33.1534L68.3708 36.1565L75.2862 43.806C76.0773 44.6811 76.3211 46.0639 75.7368 47.1194" fill="#C2AD60"/>
</svg>
