<svg width="95" height="63" viewBox="0 0 95 63" fill="none" xmlns="http://www.w3.org/2000/svg">
<path d="M1.45121 44.2491V48.3065H1.92761C2.11543 48.3065 2.30135 48.3086 2.48539 48.3127C2.66942 48.3167 2.83193 48.3186 2.97291 48.3186H3.23807C3.48337 48.3186 3.7308 48.2923 3.97988 48.2388C4.2292 48.1856 4.45463 48.0772 4.65688 47.9131C4.85889 47.749 5.02329 47.5156 5.1496 47.2122C5.27592 46.909 5.33931 46.5073 5.33931 46.0072C5.33931 45.5075 5.27592 45.1079 5.1496 44.8085C5.02329 44.5096 4.85889 44.2797 4.65688 44.1202C4.45463 43.9601 4.2292 43.8557 3.97988 43.8065C3.7308 43.7574 3.48337 43.7327 3.23807 43.7327H1.83015C1.8013 43.7327 1.76534 43.737 1.72205 43.745C1.67853 43.7534 1.6369 43.7738 1.59739 43.8065C1.55765 43.8396 1.52335 43.8906 1.4945 43.9601C1.46564 44.03 1.45121 44.1261 1.45121 44.2491ZM0.0756947 51.7369C0.0974569 51.7369 0.127971 51.7328 0.167711 51.7245C0.207451 51.7164 0.243642 51.6958 0.276049 51.663C0.308456 51.6302 0.339207 51.5792 0.368065 51.5094C0.396924 51.4396 0.411353 51.3477 0.411353 51.2328V44.2491C0.411353 44.1344 0.396924 44.042 0.368065 43.9725C0.339207 43.9029 0.308456 43.8519 0.276049 43.8186C0.243642 43.7861 0.207451 43.7654 0.167711 43.7574C0.127971 43.7493 0.0974569 43.745 0.0756947 43.745C0.0250739 43.745 0 43.6919 0 43.5852C0 43.5444 0.00709637 43.495 0.0217622 43.4378H3.35729C3.70383 43.4378 4.05936 43.4684 4.42388 43.5299C4.7884 43.5914 5.11719 43.7144 5.40956 43.8986C5.70194 44.0831 5.94179 44.3436 6.12961 44.6796C6.31743 45.0155 6.41134 45.4583 6.41134 46.0072C6.41134 46.409 6.36616 46.7532 6.2758 47.0403C6.18567 47.3271 6.06101 47.5648 5.90229 47.7533C5.74357 47.9418 5.56285 48.0914 5.36084 48.202C5.15859 48.3127 4.94191 48.3967 4.71105 48.4539L5.90229 51.2328C6.01063 51.4785 6.11707 51.6243 6.22163 51.6692C6.32642 51.7143 6.404 51.7369 6.45462 51.7369C6.49082 51.7369 6.51967 51.7514 6.54144 51.7798C6.56296 51.8086 6.58094 51.8432 6.59537 51.8846C6.6098 51.9334 6.62423 51.9869 6.63866 52.0441H4.8085C4.77231 51.9869 4.74345 51.9334 4.72193 51.8846C4.70726 51.8432 4.69827 51.8086 4.69472 51.7798C4.69094 51.7514 4.70371 51.7369 4.73281 51.7369C4.75433 51.7369 4.78296 51.7328 4.81938 51.7245C4.85534 51.7164 4.8842 51.6958 4.90596 51.663C4.92748 51.6302 4.93837 51.5792 4.93837 51.5094C4.93837 51.4396 4.91306 51.3477 4.86267 51.2328L3.758 48.6263H3.61182H3.33009C3.21821 48.6263 3.09355 48.6242 2.95659 48.6199C2.81939 48.6161 2.68219 48.614 2.545 48.614H1.45121V51.2081C1.4583 51.4541 1.50348 51.6037 1.58651 51.6568C1.66954 51.7103 1.73625 51.7369 1.78687 51.7369C1.82282 51.7369 1.84458 51.7514 1.85192 51.7798C1.85901 51.8086 1.8628 51.8432 1.8628 51.8846C1.8628 51.9334 1.85546 51.9869 1.84104 52.0441H0.0217622C0.00709637 51.9869 0 51.9334 0 51.8846C0 51.8432 0.00544061 51.8086 0.0163217 51.7798C0.0269663 51.7514 0.0468361 51.7369 0.0756947 51.7369" fill="#C2AD60"/>
<path d="M11.6638 48.4663C11.4256 47.6795 11.2125 46.9705 11.0249 46.3392C10.9452 46.0771 10.8659 45.8169 10.7867 45.5585C10.707 45.3005 10.6386 45.0708 10.5807 44.87C10.5229 44.6691 10.4742 44.5053 10.4347 44.378C10.3947 44.2513 10.3751 44.1836 10.3751 44.1753L9.07552 48.4663H11.6638ZM7.44005 51.7369C7.49043 51.7369 7.56636 51.7103 7.66737 51.6569C7.76861 51.6037 7.85519 51.4622 7.92757 51.2328L10.1908 43.7821C10.1764 43.741 10.144 43.7203 10.0934 43.7203C10.0572 43.7203 10.0302 43.7061 10.0122 43.6774C9.99403 43.6489 9.97795 43.614 9.96352 43.5729C9.95618 43.5321 9.95264 43.4867 9.95264 43.4376H10.8515C10.9743 43.4376 11.0698 43.5052 11.1384 43.6406C11.207 43.7757 11.2775 43.954 11.3497 44.1753L13.4833 51.2328C13.5626 51.4785 13.651 51.6244 13.7485 51.6692C13.8462 51.7143 13.92 51.7369 13.9706 51.7369C14.0066 51.7369 14.0319 51.7511 14.0465 51.7798C14.0607 51.8086 14.0752 51.8432 14.0898 51.8846C14.104 51.9335 14.1149 51.9869 14.1222 52.0441H12.346C12.3171 51.9869 12.2954 51.9335 12.2812 51.8846C12.2665 51.8432 12.2611 51.8086 12.2649 51.7798C12.2684 51.7511 12.2847 51.7369 12.3136 51.7369C12.3354 51.7369 12.364 51.7328 12.4002 51.7245C12.4364 51.7165 12.4669 51.6958 12.4922 51.663C12.5175 51.6303 12.5338 51.5792 12.5409 51.5094C12.5483 51.4396 12.5338 51.3475 12.4976 51.2328L11.7721 48.8229H8.96719L8.23058 51.2328C8.19439 51.3558 8.17831 51.452 8.18185 51.5215C8.1854 51.5913 8.19983 51.6405 8.22514 51.6692C8.25045 51.6979 8.2812 51.7165 8.3174 51.7245C8.35335 51.7328 8.38599 51.7369 8.41485 51.7369C8.45081 51.7369 8.46713 51.7511 8.46358 51.7798C8.4598 51.8086 8.45081 51.8432 8.43638 51.8846C8.42195 51.9335 8.40019 51.9869 8.37156 52.0441H7.28842C7.29552 51.9869 7.3064 51.9335 7.32107 51.8846C7.33526 51.8432 7.35158 51.8086 7.36979 51.7798C7.38753 51.7511 7.41119 51.7369 7.44005 51.7369" fill="#C2AD60"/>
<path d="M14.9019 43.4377H20.815L20.4576 45.122C20.3637 45.1303 20.2807 45.1263 20.2085 45.1099C20.1506 45.0935 20.0964 45.0629 20.046 45.0175C19.9954 44.9727 19.9703 44.905 19.9703 44.8148C19.9845 44.6424 19.9649 44.4888 19.9107 44.3537C19.8565 44.2183 19.7844 44.1058 19.694 44.0153C19.6037 43.9254 19.5027 43.8577 19.3908 43.8126C19.2789 43.7677 19.1689 43.7452 19.0606 43.7452H16.6778C16.6201 43.7452 16.5496 43.7739 16.4668 43.8311C16.3836 43.8886 16.3384 44.032 16.3313 44.2613V47.5934H17.2519C17.3603 47.5934 17.4741 47.5834 17.593 47.5625C17.7123 47.5424 17.8241 47.5093 17.9287 47.4642C18.0335 47.4194 18.1201 47.3536 18.1887 47.2676C18.2573 47.1814 18.2916 47.0729 18.2916 46.9419C18.2916 46.86 18.3095 46.8047 18.3457 46.7759C18.3817 46.7472 18.4179 46.7287 18.4541 46.7206C18.5045 46.7123 18.5586 46.7163 18.6166 46.733V48.7489C18.5586 48.7656 18.5045 48.7736 18.4541 48.7736C18.4179 48.7656 18.3817 48.7452 18.3457 48.7124C18.3095 48.6796 18.2916 48.6222 18.2916 48.54C18.2916 48.4092 18.2573 48.3023 18.1887 48.2204C18.1201 48.1385 18.0354 48.073 17.9341 48.0236C17.8331 47.9747 17.721 47.9417 17.5985 47.9253C17.4757 47.9089 17.3603 47.9006 17.2519 47.9006H16.3313V51.2327C16.3313 51.3557 16.3438 51.4521 16.3694 51.5216C16.3945 51.5912 16.425 51.6406 16.4614 51.669C16.4974 51.698 16.5352 51.7163 16.5749 51.7244C16.6147 51.733 16.6454 51.7367 16.667 51.7367C16.7032 51.7367 16.7249 51.7512 16.732 51.7797C16.7391 51.8087 16.7429 51.8433 16.7429 51.8844C16.7429 51.9336 16.7356 51.987 16.7211 52.0442H14.9019C14.8872 51.987 14.8801 51.9336 14.8801 51.8844C14.8801 51.8433 14.8855 51.8087 14.8964 51.7797C14.9071 51.7512 14.9269 51.7367 14.956 51.7367C14.9776 51.7367 15.0083 51.733 15.048 51.7244C15.0875 51.7163 15.1237 51.6959 15.1564 51.6631C15.1888 51.6304 15.2193 51.5791 15.2484 51.5095C15.277 51.4397 15.2917 51.3476 15.2917 51.2327V44.2489C15.2917 44.1345 15.277 44.0422 15.2484 43.9723C15.2193 43.9028 15.1888 43.8518 15.1564 43.8187C15.1237 43.7862 15.0875 43.7656 15.048 43.7572C15.0083 43.7492 14.9776 43.7452 14.956 43.7452C14.9054 43.7452 14.8801 43.6917 14.8801 43.5854C14.8801 43.5443 14.8872 43.4951 14.9019 43.4377" fill="#C2AD60"/>
<path d="M23.8042 48.4663C23.566 47.6795 23.3529 46.9705 23.1653 46.3392C23.0856 46.0771 23.0063 45.8169 22.9271 45.5585C22.8474 45.3005 22.779 45.0708 22.721 44.87C22.6633 44.6691 22.6146 44.5053 22.5751 44.378C22.5351 44.2513 22.5155 44.1836 22.5155 44.1753L21.2159 48.4663H23.8042ZM19.5804 51.7369C19.6308 51.7369 19.7067 51.7103 19.8077 51.6569C19.909 51.6037 19.9956 51.4622 20.0679 51.2328L22.3312 43.7821C22.3168 43.741 22.2844 43.7203 22.2338 43.7203C22.1976 43.7203 22.1706 43.7061 22.1526 43.6774C22.1344 43.6489 22.1183 43.614 22.1039 43.5729C22.0966 43.5321 22.093 43.4867 22.093 43.4376H22.9919C23.1147 43.4376 23.2102 43.5052 23.2788 43.6406C23.3474 43.7757 23.4179 43.954 23.4901 44.1753L25.6237 51.2328C25.7029 51.4785 25.7914 51.6244 25.8889 51.6692C25.9866 51.7143 26.0604 51.7369 26.111 51.7369C26.1469 51.7369 26.1722 51.7511 26.1869 51.7798C26.2011 51.8086 26.2155 51.8432 26.2302 51.8846C26.2444 51.9335 26.2553 51.9869 26.2626 52.0441H24.4864C24.4575 51.9869 24.4358 51.9335 24.4216 51.8846C24.4069 51.8432 24.4015 51.8086 24.4053 51.7798C24.4088 51.7511 24.4251 51.7369 24.454 51.7369C24.4757 51.7369 24.5044 51.7328 24.5406 51.7245C24.5767 51.7165 24.6073 51.6958 24.6326 51.663C24.6579 51.6303 24.6742 51.5792 24.6813 51.5094C24.6886 51.4396 24.6742 51.3475 24.638 51.2328L23.9125 48.8229H21.1076L20.371 51.2328C20.3348 51.3558 20.3187 51.452 20.3222 51.5215C20.3258 51.5913 20.3402 51.6405 20.3655 51.6692C20.3908 51.6979 20.4216 51.7165 20.4578 51.7245C20.4937 51.7328 20.5264 51.7369 20.5552 51.7369C20.5912 51.7369 20.6075 51.7511 20.604 51.7798C20.6002 51.8086 20.5912 51.8432 20.5768 51.8846C20.5623 51.9335 20.5406 51.9869 20.5119 52.0441H19.4288C19.4359 51.9869 19.4468 51.9335 19.4614 51.8846C19.4756 51.8432 19.492 51.8086 19.5102 51.7798C19.5279 51.7511 19.5516 51.7369 19.5804 51.7369" fill="#C2AD60"/>
<path d="M27.0423 43.4377H32.9661L32.598 45.1343C32.5041 45.1427 32.4211 45.1343 32.3489 45.1099C32.291 45.0935 32.2368 45.0629 32.1864 45.0175C32.1358 44.9727 32.1107 44.905 32.1107 44.8148C32.1249 44.6424 32.1088 44.4909 32.062 44.3599C32.0149 44.2288 31.9537 44.1182 31.8777 44.0277C31.802 43.9377 31.7117 43.8682 31.6071 43.8187C31.5023 43.7696 31.3959 43.7452 31.2875 43.7452H28.7967C28.7388 43.7535 28.6721 43.7862 28.5964 43.8434C28.5207 43.9009 28.4826 44.04 28.4826 44.2613V47.5934H29.4247C29.5331 47.5934 29.645 47.5834 29.7606 47.5625C29.8758 47.5424 29.9844 47.5072 30.0854 47.4583C30.1864 47.4089 30.2697 47.3434 30.3345 47.2615C30.3995 47.1796 30.432 47.0729 30.432 46.9419C30.432 46.86 30.4499 46.8047 30.4861 46.7759C30.5221 46.7472 30.5583 46.7287 30.5945 46.7206C30.6448 46.7123 30.699 46.7163 30.757 46.733V48.7489C30.699 48.7656 30.6486 48.7696 30.6053 48.7613C30.5692 48.7532 30.533 48.7349 30.497 48.7059C30.4608 48.6775 30.4391 48.6222 30.432 48.54C30.432 48.4253 30.4031 48.327 30.3454 48.2449C30.2874 48.1632 30.2117 48.0977 30.1178 48.0483C30.0239 47.9991 29.9175 47.9624 29.7985 47.9376C29.6793 47.9129 29.5584 47.9006 29.4356 47.9006H28.4826V51.2327C28.4826 51.3476 28.4935 51.4376 28.5152 51.5031C28.5368 51.5689 28.564 51.6202 28.5964 51.6567C28.6288 51.6937 28.6614 51.7163 28.6938 51.7244C28.7262 51.733 28.757 51.7367 28.7858 51.7367H31.2551C31.3635 51.7367 31.4718 51.712 31.5799 51.6631C31.6882 51.6137 31.7822 51.5442 31.8616 51.4542C31.9409 51.364 32.0059 51.2512 32.0566 51.1158C32.1069 50.9808 32.1249 50.8272 32.1107 50.6548C32.1107 50.5648 32.1358 50.4993 32.1864 50.4582C32.2368 50.4171 32.291 50.3886 32.3489 50.372C32.4211 50.3559 32.5041 50.3516 32.598 50.3596L32.9661 52.0442H27.0423C27.0276 51.987 27.0205 51.9336 27.0205 51.8844C27.0205 51.8433 27.0259 51.8087 27.0368 51.7797C27.0475 51.7512 27.0673 51.7367 27.0964 51.7367C27.1179 51.7367 27.1487 51.733 27.1884 51.7244C27.2279 51.7163 27.2641 51.6959 27.2968 51.6631C27.3292 51.6304 27.3597 51.5791 27.3888 51.5095C27.4174 51.4397 27.4321 51.3476 27.4321 51.2327V44.2489C27.4321 44.1345 27.4174 44.0422 27.3888 43.9723C27.3597 43.9028 27.3292 43.8518 27.2968 43.8187C27.2641 43.7862 27.2279 43.7656 27.1884 43.7572C27.1487 43.7492 27.1179 43.7452 27.0964 43.7452C27.0458 43.7452 27.0205 43.6917 27.0205 43.5854C27.0205 43.5443 27.0276 43.4951 27.0423 43.4377" fill="#C2AD60"/>
<path d="M34.0168 43.4747H35.8361C35.8505 43.5321 35.8578 43.581 35.8578 43.6221C35.8578 43.6632 35.854 43.6981 35.8469 43.7265C35.8398 43.7556 35.8181 43.7698 35.7819 43.7698C35.7315 43.7698 35.6646 43.7964 35.5818 43.8495C35.4985 43.903 35.4533 44.0485 35.4462 44.2859V51.257C35.4462 51.4869 35.4843 51.6281 35.56 51.6816C35.6359 51.735 35.7024 51.7613 35.7604 51.7613H38.1755C38.457 51.7613 38.6772 51.6652 38.8362 51.4724C38.9949 51.2798 39.0815 51.0073 39.0961 50.6547C39.1248 50.5647 39.1645 50.5011 39.2151 50.4643C39.2655 50.4275 39.3161 50.4009 39.3667 50.3843C39.4318 50.3681 39.5004 50.3681 39.5725 50.3843L39.93 52.0812H34.0168C34.0021 52.0237 33.995 51.9705 33.995 51.9211C33.995 51.8148 34.0203 51.7613 34.071 51.7613C34.0925 51.7613 34.1232 51.7573 34.163 51.749C34.2025 51.7409 34.2387 51.7205 34.2713 51.6875C34.3037 51.655 34.3342 51.6037 34.3633 51.5339C34.3919 51.4643 34.4066 51.3722 34.4066 51.257V44.2738C34.4066 44.1592 34.3919 44.0668 34.3633 43.997C34.3342 43.9277 34.3037 43.8761 34.2713 43.8434C34.2387 43.8109 34.2025 43.7902 34.163 43.7821C34.1232 43.7738 34.0925 43.7698 34.071 43.7698C34.0419 43.7698 34.022 43.7556 34.0113 43.7265C34.0005 43.6981 33.995 43.6632 33.995 43.6221C33.995 43.581 34.0021 43.5321 34.0168 43.4747" fill="#C2AD60"/>
<path d="M47.9982 43.622C48.2581 43.622 48.5269 43.6467 48.805 43.6956C49.0827 43.745 49.35 43.8229 49.6064 43.9295C49.8626 44.0361 50.0992 44.1672 50.3158 44.3229C50.5323 44.4787 50.7092 44.6672 50.8464 44.8885L50.0341 45.3434C49.8678 44.95 49.6154 44.6283 49.276 44.378C48.9366 44.1282 48.507 44.0034 47.9873 44.0034C47.619 44.0034 47.2672 44.0914 46.9314 44.2676C46.5957 44.444 46.2995 44.6978 46.0434 45.0297C45.7869 45.3619 45.5847 45.7674 45.4369 46.247C45.2888 46.7267 45.2147 47.2696 45.2147 47.8763C45.2147 48.4663 45.2923 48.9972 45.4477 49.4685C45.6029 49.9398 45.8087 50.3372 46.0651 50.6611C46.3213 50.9849 46.6156 51.2328 46.9477 51.4047C47.2795 51.5768 47.6228 51.663 47.9764 51.663C48.3951 51.663 48.7833 51.5749 49.1407 51.3988C49.4981 51.2226 49.7742 50.9951 49.9691 50.7164L50.5865 51.3064C50.2759 51.5607 49.8988 51.7511 49.4546 51.8781C49.0106 52.0054 48.5287 52.0688 48.0091 52.0688C47.5613 52.0688 47.1083 51.9764 46.6499 51.7922C46.1912 51.6077 45.778 51.337 45.4099 50.9806C45.0416 50.624 44.74 50.1855 44.5056 49.665C44.2709 49.1446 44.1536 48.5522 44.1536 47.8886C44.1536 47.1918 44.2726 46.5792 44.511 46.0505C44.7492 45.5217 45.056 45.077 45.4314 44.7163C45.8068 44.3557 46.2201 44.0831 46.6716 43.8986C47.1227 43.7144 47.5651 43.622 47.9982 43.622Z" fill="#C2AD60"/>
<path d="M55.5357 48.4663C55.2973 47.6795 55.0844 46.9705 54.8966 46.3392C54.8171 46.0771 54.7379 45.8169 54.6584 45.5585C54.5789 45.3005 54.5103 45.0708 54.4526 44.87C54.3949 44.6691 54.3461 44.5053 54.3064 44.378C54.2667 44.2513 54.2468 44.1836 54.2468 44.1753L52.9474 48.4663H55.5357ZM51.312 51.7369C51.3621 51.7369 51.4383 51.7103 51.5393 51.6569C51.6403 51.6037 51.7269 51.4622 51.7992 51.2328L54.0625 43.7821C54.0481 43.741 54.0157 43.7203 53.9653 43.7203C53.9291 43.7203 53.9021 43.7061 53.8842 43.6774C53.8659 43.6489 53.8496 43.614 53.8354 43.5729C53.8279 43.5321 53.8246 43.4867 53.8246 43.4376H54.7232C54.846 43.4376 54.9415 43.5052 55.0104 43.6406C55.0787 43.7757 55.1492 43.954 55.2216 44.1753L57.355 51.2328C57.4342 51.4785 57.5229 51.6244 57.6204 51.6692C57.7179 51.7143 57.7919 51.7369 57.8425 51.7369C57.8785 51.7369 57.9038 51.7511 57.9182 51.7798C57.9326 51.8086 57.9468 51.8432 57.9615 51.8846C57.9759 51.9335 57.9866 51.9869 57.9941 52.0441H56.2179C56.1891 51.9869 56.1673 51.9335 56.1529 51.8846C56.1384 51.8432 56.1328 51.8086 56.1368 51.7798C56.1403 51.7511 56.1564 51.7369 56.1855 51.7369C56.207 51.7369 56.2359 51.7328 56.2721 51.7245C56.3083 51.7165 56.3388 51.6958 56.3641 51.663C56.3892 51.6303 56.4057 51.5792 56.4128 51.5094C56.4199 51.4396 56.4057 51.3475 56.3695 51.2328L55.6438 48.8229H52.8391L52.1025 51.2328C52.0663 51.3558 52.0502 51.452 52.0538 51.5215C52.0573 51.5913 52.0715 51.6405 52.0971 51.6692C52.1221 51.6979 52.1529 51.7165 52.1893 51.7245C52.2253 51.7328 52.2577 51.7369 52.2868 51.7369C52.3227 51.7369 52.3388 51.7511 52.3355 51.7798C52.3317 51.8086 52.3227 51.8432 52.3081 51.8846C52.2936 51.9335 52.2721 51.9869 52.2432 52.0441H51.1603C51.1674 51.9869 51.1781 51.9335 51.1927 51.8846C51.2072 51.8432 51.2235 51.8086 51.2415 51.7798C51.2595 51.7511 51.2829 51.7369 51.312 51.7369" fill="#C2AD60"/>
<path d="M59.077 49.499C59.077 49.8105 59.1437 50.1014 59.2776 50.3721C59.411 50.6425 59.5915 50.8761 59.819 51.0727C60.0464 51.2695 60.3063 51.4253 60.5987 51.5402C60.8911 51.6549 61.1924 51.7121 61.503 51.7121C61.7197 51.7121 61.9451 51.6874 62.1798 51.6385C62.4144 51.5891 62.6294 51.497 62.8243 51.3619C63.0193 51.2266 63.178 51.0362 63.3008 50.7902C63.4235 50.5442 63.485 50.2287 63.485 49.8433C63.485 49.5895 63.4162 49.372 63.2792 49.1915C63.142 49.0116 62.9632 48.8518 62.743 48.7122C62.5228 48.5731 62.2701 48.4458 61.9848 48.3309C61.6996 48.2165 61.411 48.0997 61.1186 47.9807C60.8262 47.8617 60.5374 47.735 60.2521 47.5996C59.9669 47.4643 59.714 47.3045 59.494 47.12C59.2738 46.9355 59.095 46.7185 58.958 46.4685C58.8208 46.2185 58.7522 45.9253 58.7522 45.5891C58.7522 45.1631 58.8497 44.813 59.0446 44.538C59.2395 44.2635 59.4777 44.0444 59.7594 43.8803C60.0409 43.7165 60.3425 43.6018 60.6637 43.536C60.9847 43.4705 61.2757 43.4378 61.5356 43.4378C62.2285 43.4378 62.7879 43.536 63.2142 43.7326C63.6402 43.9295 63.9579 44.1714 64.1672 44.4582L63.7123 45.5155C63.7123 45.3517 63.6691 45.1693 63.5825 44.9684C63.4959 44.7676 63.3639 44.575 63.187 44.3905C63.01 44.2061 62.7846 44.0525 62.5102 43.9295C62.2358 43.8065 61.9108 43.745 61.5356 43.745C61.2972 43.745 61.0642 43.774 60.8369 43.8312C60.6096 43.8884 60.4054 43.9807 60.2252 44.1078C60.0445 44.2348 59.8983 44.3967 59.7864 44.5933C59.6743 44.7901 59.6187 45.0281 59.6187 45.3065C59.6187 45.6589 59.7414 45.9459 59.987 46.1672C60.2323 46.3885 60.5374 46.5792 60.9019 46.7389C61.2665 46.8985 61.6636 47.0483 62.0932 47.1877C62.5228 47.3271 62.9218 47.497 63.2901 47.6979C63.6582 47.8988 63.9669 48.1488 64.2159 48.448C64.465 48.7471 64.593 49.1346 64.6006 49.6097C64.6074 50.1508 64.5173 50.5831 64.3297 50.9067C64.1419 51.2306 63.8983 51.4766 63.5986 51.6444C63.2991 51.8125 62.9651 51.9213 62.5968 51.9704C62.2285 52.0196 61.8675 52.0443 61.5139 52.0443C61.059 52.0443 60.6491 51.9949 60.2846 51.8966C59.9198 51.7983 59.6078 51.6836 59.3478 51.5523C59.0879 51.4213 58.8892 51.2902 58.7522 51.1589C58.615 51.0278 58.5464 50.9255 58.5464 50.8514L59.077 49.499Z" fill="#C2AD60"/>
<path d="M66.2357 49.499C66.2357 49.8105 66.3024 50.1014 66.4363 50.3721C66.5697 50.6425 66.7502 50.8761 66.9778 51.0727C67.2051 51.2695 67.4651 51.4253 67.7574 51.5402C68.0498 51.6549 68.3512 51.7121 68.6618 51.7121C68.8784 51.7121 69.1039 51.6874 69.3385 51.6385C69.5732 51.5891 69.7882 51.497 69.9831 51.3619C70.178 51.2266 70.3367 51.0362 70.4595 50.7902C70.5823 50.5442 70.6438 50.2287 70.6438 49.8433C70.6438 49.5895 70.5749 49.372 70.438 49.1915C70.3008 49.0116 70.122 48.8518 69.9017 48.7122C69.6815 48.5731 69.4289 48.4458 69.1436 48.3309C68.8583 48.2165 68.5697 48.0997 68.2774 47.9807C67.985 47.8617 67.6962 47.735 67.4109 47.5996C67.1256 47.4643 66.8728 47.3045 66.6528 47.12C66.4325 46.9355 66.2537 46.7185 66.1168 46.4685C65.9796 46.2185 65.911 45.9253 65.911 45.5891C65.911 45.1631 66.0084 44.813 66.2033 44.538C66.3982 44.2635 66.6365 44.0444 66.9182 43.8803C67.1997 43.7165 67.5013 43.6018 67.8225 43.536C68.1435 43.4705 68.4344 43.4378 68.6944 43.4378C69.3872 43.4378 69.9467 43.536 70.3729 43.7326C70.7989 43.9295 71.1166 44.1714 71.326 44.4582L70.8711 45.5155C70.8711 45.3517 70.8278 45.1693 70.7412 44.9684C70.6547 44.7676 70.5227 44.575 70.3457 44.3905C70.1688 44.2061 69.9434 44.0525 69.669 43.9295C69.3946 43.8065 69.0696 43.745 68.6944 43.745C68.456 43.745 68.223 43.774 67.9956 43.8312C67.7683 43.8884 67.5642 43.9807 67.3839 44.1078C67.2032 44.2348 67.057 44.3967 66.9451 44.5933C66.833 44.7901 66.7774 45.0281 66.7774 45.3065C66.7774 45.6589 66.9002 45.9459 67.1457 46.1672C67.391 46.3885 67.6962 46.5792 68.0607 46.7389C68.4252 46.8985 68.8224 47.0483 69.2519 47.1877C69.6815 47.3271 70.0806 47.497 70.4489 47.6979C70.8169 47.8988 71.1256 48.1488 71.3747 48.448C71.6238 48.7471 71.7518 49.1346 71.7593 49.6097C71.7662 50.1508 71.6761 50.5831 71.4885 50.9067C71.3007 51.2306 71.057 51.4766 70.7573 51.6444C70.4578 51.8125 70.1238 51.9213 69.7555 51.9704C69.3872 52.0196 69.0263 52.0443 68.6726 52.0443C68.2178 52.0443 67.8078 51.9949 67.4433 51.8966C67.0786 51.7983 66.7666 51.6836 66.5066 51.5523C66.2466 51.4213 66.0479 51.2902 65.911 51.1589C65.7738 51.0278 65.7052 50.9255 65.7052 50.8514L66.2357 49.499Z" fill="#C2AD60"/>
<path d="M76.4594 48.4663C76.221 47.6795 76.0081 46.9705 75.8203 46.3392C75.7408 46.0771 75.6615 45.8169 75.5821 45.5585C75.5026 45.3005 75.434 45.0708 75.3763 44.87C75.3185 44.6691 75.2698 44.5053 75.2301 44.378C75.1903 44.2513 75.1705 44.1836 75.1705 44.1753L73.8711 48.4663H76.4594ZM72.2356 51.7369C72.2858 51.7369 72.362 51.7103 72.463 51.6569C72.564 51.6037 72.6505 51.4622 72.7229 51.2328L74.9862 43.7821C74.9718 43.741 74.9394 43.7203 74.889 43.7203C74.8528 43.7203 74.8258 43.7061 74.8078 43.6774C74.7896 43.6489 74.7733 43.614 74.7591 43.5729C74.7515 43.5321 74.7482 43.4867 74.7482 43.4376H75.6469C75.7696 43.4376 75.8652 43.5052 75.934 43.6406C76.0024 43.7757 76.0729 43.954 76.1453 44.1753L78.2787 51.2328C78.3579 51.4785 78.4466 51.6244 78.5441 51.6692C78.6415 51.7143 78.7156 51.7369 78.7662 51.7369C78.8022 51.7369 78.8275 51.7511 78.8419 51.7798C78.8563 51.8086 78.8705 51.8432 78.8852 51.8846C78.8996 51.9335 78.9103 51.9869 78.9178 52.0441H77.1416C77.1127 51.9869 77.091 51.9335 77.0765 51.8846C77.0621 51.8432 77.0564 51.8086 77.0605 51.7798C77.064 51.7511 77.0801 51.7369 77.1092 51.7369C77.1307 51.7369 77.1596 51.7328 77.1958 51.7245C77.232 51.7165 77.2625 51.6958 77.2878 51.663C77.3129 51.6303 77.3294 51.5792 77.3365 51.5094C77.3436 51.4396 77.3294 51.3475 77.2932 51.2328L76.5675 48.8229H73.7628L73.0262 51.2328C72.99 51.3558 72.9739 51.452 72.9774 51.5215C72.981 51.5913 72.9952 51.6405 73.0207 51.6692C73.0458 51.6979 73.0766 51.7165 73.113 51.7245C73.1489 51.7328 73.1814 51.7369 73.2104 51.7369C73.2464 51.7369 73.2625 51.7511 73.2592 51.7798C73.2554 51.8086 73.2464 51.8432 73.2317 51.8846C73.2173 51.9335 73.1958 51.9869 73.1669 52.0441H72.084C72.0911 51.9869 72.1018 51.9335 72.1164 51.8846C72.1309 51.8432 72.1472 51.8086 72.1652 51.7798C72.1831 51.7511 72.2065 51.7369 72.2356 51.7369" fill="#C2AD60"/>
<path d="M81.127 44.2491V48.3065H81.6037C81.7912 48.3065 81.9772 48.3086 82.1612 48.3127C82.3452 48.3167 82.5077 48.3186 82.6487 48.3186H82.9139C83.1594 48.3186 83.4068 48.2923 83.6557 48.2388C83.9048 48.1856 84.1304 48.0772 84.3327 47.9131C84.5347 47.749 84.6991 47.5156 84.8254 47.2122C84.9517 46.909 85.0151 46.5073 85.0151 46.0072C85.0151 45.5075 84.9517 45.1079 84.8254 44.8085C84.6991 44.5096 84.5347 44.2797 84.3327 44.1202C84.1304 43.9601 83.9048 43.8557 83.6557 43.8065C83.4068 43.7574 83.1594 43.7327 82.9139 43.7327H81.5062C81.4769 43.7327 81.4409 43.737 81.3979 43.745C81.3543 43.7534 81.3127 43.7738 81.2732 43.8065C81.2335 43.8396 81.1992 43.8906 81.1703 43.9601C81.1414 44.03 81.127 44.1261 81.127 44.2491ZM79.7517 51.7369C79.773 51.7369 79.8038 51.7328 79.8435 51.7245C79.8833 51.7164 79.9194 51.6958 79.9519 51.663C79.9845 51.6302 80.015 51.5792 80.0441 51.5094C80.0727 51.4396 80.0872 51.3477 80.0872 51.2328V44.2491C80.0872 44.1344 80.0727 44.042 80.0441 43.9725C80.015 43.9029 79.9845 43.8519 79.9519 43.8186C79.9194 43.7861 79.8833 43.7654 79.8435 43.7574C79.8038 43.7493 79.773 43.745 79.7517 43.745C79.7011 43.745 79.6756 43.6919 79.6756 43.5852C79.6756 43.5444 79.6829 43.495 79.6973 43.4378H83.0331C83.3794 43.4378 83.7352 43.4684 84.0997 43.5299C84.4642 43.5914 84.793 43.7144 85.0854 43.8986C85.3777 44.0831 85.6176 44.3436 85.8054 44.6796C85.9932 45.0155 86.0871 45.4583 86.0871 46.0072C86.0871 46.409 86.042 46.7532 85.9516 47.0403C85.8615 47.3271 85.7368 47.5648 85.5781 47.7533C85.4194 47.9418 85.2387 48.0914 85.0366 48.202C84.8344 48.3127 84.6177 48.3967 84.3868 48.4539L85.5781 51.2328C85.6864 51.4785 85.7929 51.6243 85.8977 51.6692C86.002 51.7143 86.0798 51.7369 86.1304 51.7369C86.1666 51.7369 86.1955 51.7514 86.2172 51.7798C86.2388 51.8086 86.2567 51.8432 86.2712 51.8846C86.2856 51.9334 86.3 51.9869 86.3147 52.0441H84.4843C84.4481 51.9869 84.4193 51.9334 84.3975 51.8846C84.3831 51.8432 84.3743 51.8086 84.3705 51.7798C84.3667 51.7514 84.3795 51.7369 84.4084 51.7369C84.4301 51.7369 84.459 51.7328 84.495 51.7245C84.5311 51.7164 84.5602 51.6958 84.5815 51.663C84.6033 51.6302 84.6142 51.5792 84.6142 51.5094C84.6142 51.4396 84.5889 51.3477 84.5385 51.2328L83.4338 48.6263H83.2876H83.0059C82.894 48.6263 82.7693 48.6242 82.6324 48.6199C82.495 48.6161 82.3578 48.614 82.2208 48.614H81.127V51.2081C81.1341 51.4541 81.1793 51.6037 81.2623 51.6568C81.3453 51.7103 81.4121 51.7369 81.4627 51.7369C81.4986 51.7369 81.5204 51.7514 81.5275 51.7798C81.5348 51.8086 81.5384 51.8432 81.5384 51.8846C81.5384 51.9334 81.5313 51.9869 81.5168 52.0441H79.6973C79.6829 51.9869 79.6756 51.9334 79.6756 51.8846C79.6756 51.8432 79.6812 51.8086 79.6921 51.7798C79.7028 51.7514 79.7226 51.7369 79.7517 51.7369Z" fill="#C2AD60"/>
<path d="M91.1987 51.6508C91.5959 51.6508 91.9639 51.5482 92.3034 51.3433C92.6426 51.1387 92.9352 50.8618 93.1807 50.5135C93.426 50.1652 93.6191 49.7551 93.76 49.2841C93.9008 48.8128 93.9713 48.3107 93.9713 47.7779C93.9713 47.2451 93.9027 46.7472 93.7655 46.284C93.6283 45.821 93.4369 45.4193 93.1916 45.079C92.9461 44.739 92.6535 44.4705 92.3143 44.2737C91.9748 44.0771 91.603 43.9788 91.1987 43.9788C90.8016 43.9788 90.4352 44.0771 90.0995 44.2737C89.7638 44.4705 89.4731 44.739 89.2276 45.079C88.9821 45.4193 88.7907 45.821 88.6537 46.284C88.5163 46.7472 88.4479 47.2451 88.4479 47.7779C88.4479 48.3107 88.5163 48.8128 88.6537 49.2841C88.7907 49.7551 88.9821 50.1652 89.2276 50.5135C89.4731 50.8618 89.7638 51.1387 90.0995 51.3433C90.4352 51.5482 90.8016 51.6508 91.1987 51.6508ZM87.3974 47.7779C87.3974 47.1959 87.4965 46.6511 87.695 46.1424C87.8937 45.6346 88.1664 45.1897 88.513 44.8086C88.8593 44.4275 89.2619 44.1281 89.7205 43.9111C90.1787 43.6939 90.6681 43.5854 91.1878 43.5854C91.7078 43.5854 92.1988 43.6939 92.6608 43.9111C93.1228 44.1281 93.5273 44.4275 93.8738 44.8086C94.2201 45.1897 94.4947 45.6346 94.6968 46.1424C94.899 46.6511 95 47.1959 95 47.7779C95 48.3598 94.9061 48.909 94.7185 49.4254C94.5307 49.9418 94.2688 50.3945 93.9334 50.7837C93.5978 51.1733 93.1949 51.4829 92.7259 51.7123C92.2563 51.9419 91.744 52.0566 91.1878 52.0566C90.6393 52.0566 90.1336 51.9419 89.6718 51.7123C89.2096 51.4829 88.8106 51.1733 88.4749 50.7837C88.1392 50.3945 87.8755 49.9418 87.6846 49.4254C87.493 48.909 87.3974 48.3598 87.3974 47.7779" fill="#C2AD60"/>
<path d="M32.263 60.0346H31.2901V59.4374H33.8148V60.0346H32.8416V62.9206H32.263V60.0346Z" fill="#C2AD60"/>
<path d="M37.6852 60.1689L37.1154 61.6515H38.2551L37.6852 60.1689ZM38.4871 62.264H36.8831L36.62 62.9206H35.9934L37.3697 59.4374H38.0005L39.377 62.9206H38.7456L38.4871 62.264Z" fill="#C2AD60"/>
<path d="M42.073 60.0346H41.0998V59.4374H43.6245V60.0346H42.6516V62.9206H42.073V60.0346Z" fill="#C2AD60"/>
<path d="M46.912 60.0346H45.9388V59.4374H48.4637V60.0346H47.4906V62.9206H46.912V60.0346Z" fill="#C2AD60"/>
<path d="M51.3918 61.2139C51.4048 61.7859 51.6766 62.3982 52.4 62.3982C53.1229 62.3982 53.3946 61.7811 53.4034 61.2091C53.4124 60.6215 53.1229 59.9649 52.4 59.9649C51.6766 59.9649 51.3786 60.6269 51.3918 61.2139ZM53.9735 61.1989C53.9645 62.0996 53.4781 63 52.4 63C51.3216 63 50.822 62.1194 50.822 61.2037C50.822 60.2883 51.3391 59.3677 52.4 59.3677C53.4564 59.3677 53.9822 60.2883 53.9735 61.1989" fill="#C2AD60"/>
<path d="M56.9756 61.2139C56.9886 61.7859 57.2604 62.3982 57.9837 62.3982C58.7066 62.3982 58.9784 61.7811 58.9872 61.2091C58.9962 60.6215 58.7066 59.9649 57.9837 59.9649C57.2604 59.9649 56.9623 60.6269 56.9756 61.2139ZM59.5572 61.1989C59.5483 62.0996 59.0619 63 57.9837 63C56.9053 63 56.4057 62.1194 56.4057 61.2037C56.4057 60.2883 56.9228 59.3677 57.9837 59.3677C59.0402 59.3677 59.566 60.2883 59.5572 61.1989" fill="#C2AD60"/>
<path d="M61.8931 59.4375H64.2513V59.7463L62.66 62.2988H64.2513V62.9207H61.8536V62.5426L63.4096 60.0546H61.8931V59.4375Z" fill="#C2AD60"/>
<path d="M48.1696 13.388C46.2895 13.0611 44.6935 14.8727 44.9814 17.0074C45.1609 18.3372 46.1185 19.4242 47.2898 19.6278C49.1699 19.9546 50.7659 18.1428 50.478 16.0084C50.2985 14.6786 49.3409 13.5915 48.1696 13.388ZM55.3461 35.3394C54.7264 36.4885 53.3854 36.619 52.6022 35.7299L47.4895 29.9256L42.3742 35.7331C41.591 36.6222 40.2502 36.492 39.6303 35.3426C39.2035 34.5512 39.3814 33.5139 39.9595 32.8575L45.0159 27.1172L30.427 10.5551C29.6438 9.66595 29.7585 8.14359 30.7709 7.44027C31.4682 6.95555 32.3818 7.1575 32.9599 7.81382L39.4327 15.1622C39.6541 13.1669 40.3986 11.2407 41.683 9.72181C41.9127 9.45005 42.1561 9.20406 42.4052 8.96962L49.7937 0.581702C50.5769 -0.307442 51.9179 -0.177201 52.5376 0.972161C52.9646 1.76356 52.7867 2.80093 52.2083 3.45725L49.1945 6.87875C50.1263 7.05062 51.0384 7.39516 51.8883 7.91962C53.0507 8.63663 53.0951 10.6177 51.8391 11.4257C51.3277 11.7547 50.6857 11.731 50.1667 11.4168C48.3146 10.2951 45.9872 10.6061 44.3969 12.3253L44.0695 12.6967C43.8746 12.9497 43.6872 13.2166 43.524 13.5193C42.5762 15.278 42.5814 17.5772 43.5356 19.3313C45.0058 22.0337 47.8568 22.7233 50.0645 21.4571C50.5842 21.0822 51.2361 21.0551 51.78 21.3639C51.7986 21.3741 51.8159 21.3851 51.8341 21.3964C51.9779 21.485 52.1158 21.5895 52.2372 21.7275C52.2384 21.7289 52.2391 21.7302 52.2403 21.7318C52.2459 21.7383 52.2542 21.7412 52.2599 21.7479C53.0649 22.6618 52.9187 24.215 51.9474 24.8649L49.9633 27.1172L55.0168 32.8543C55.595 33.5106 55.7731 34.5477 55.3461 35.3394" fill="#C2AD60"/>
</svg>
