<svg width="24" height="22" viewBox="0 0 24 22" fill="none" xmlns="http://www.w3.org/2000/svg">
<path d="M21 21.5C21.5967 21.5 22.169 21.2498 22.591 20.8044C23.0129 20.359 23.25 19.7549 23.25 19.125V13.3252C23.25 12.6954 23.0129 12.0913 22.591 11.6459C22.169 11.2005 21.5967 10.9503 21 10.9503H17.877C17.877 10.1166 17.9242 9.28063 18.0165 8.447C18.156 7.5635 18.39 6.77738 18.714 6.091C19.0402 5.40225 19.4587 4.86312 19.9717 4.46887C20.4825 4.02712 21.1327 3.80625 21.9247 3.80625V0.125C20.622 0.125 19.4835 0.4195 18.5047 1.0085C17.5345 1.59153 16.7003 2.39657 16.0635 3.3645C15.4243 4.43162 14.9532 5.60103 14.6685 6.82725C14.3816 8.18043 14.2412 9.56363 14.25 10.9503V19.125C14.25 19.7549 14.487 20.359 14.909 20.8044C15.331 21.2498 15.9033 21.5 16.5 21.5H21ZM7.49999 21.5C8.09673 21.5 8.66903 21.2498 9.09098 20.8044C9.51294 20.359 9.74999 19.7549 9.74999 19.125V13.3252C9.74999 12.6954 9.51294 12.0913 9.09098 11.6459C8.66903 11.2005 8.09673 10.9503 7.49999 10.9503H4.37699C4.37699 10.1166 4.42424 9.28063 4.51649 8.447C4.65599 7.5635 4.88999 6.77738 5.21399 6.091C5.54024 5.40225 5.95874 4.86312 6.47174 4.46887C6.98249 4.02712 7.63274 3.80625 8.42474 3.80625V0.125C7.12199 0.125 5.98349 0.4195 5.00474 1.0085C4.03451 1.59153 3.20034 2.39657 2.56349 3.3645C1.92432 4.43162 1.45322 5.60103 1.16849 6.82725C0.881587 8.18043 0.741187 9.56363 0.749993 10.9503V19.125C0.749993 19.7549 0.987046 20.359 1.409 20.8044C1.83096 21.2498 2.40326 21.5 2.99999 21.5H7.49999Z" fill="#C2AD60"/>
</svg>
