<svg width="110" height="21" viewBox="0 0 110 21" fill="none" xmlns="http://www.w3.org/2000/svg">
<path d="M19.51 7.24127L14.0551 6.48453L11.6166 1.76568C11.55 1.63648 11.4404 1.53189 11.3051 1.46832C10.9656 1.30836 10.5531 1.44166 10.3834 1.76568L7.94492 6.48453L2.49003 7.24127C2.33964 7.26178 2.20214 7.32945 2.09687 7.43199C1.9696 7.55685 1.89947 7.72484 1.90189 7.89904C1.9043 8.07324 1.97907 8.23939 2.10976 8.36099L6.05644 12.0339L5.12402 17.2204C5.10215 17.341 5.11614 17.4651 5.16439 17.5785C5.21264 17.692 5.29323 17.7903 5.39702 17.8622C5.5008 17.9342 5.62363 17.9769 5.75158 17.9856C5.87952 17.9943 6.00746 17.9687 6.12089 17.9115L11 15.4628L15.8791 17.9115C16.0123 17.9792 16.167 18.0017 16.3152 17.9771C16.6891 17.9156 16.9404 17.5772 16.876 17.2204L15.9436 12.0339L19.8902 8.36099C19.9977 8.26051 20.0686 8.12926 20.09 7.9857C20.148 7.62681 19.8859 7.29459 19.51 7.24127Z" fill="#FFD43A"/>
<path d="M41.51 7.24127L36.0551 6.48453L33.6166 1.76568C33.55 1.63648 33.4404 1.53189 33.3051 1.46832C32.9656 1.30836 32.5531 1.44166 32.3834 1.76568L29.9449 6.48453L24.49 7.24127C24.3396 7.26178 24.2021 7.32945 24.0969 7.43199C23.9696 7.55685 23.8995 7.72484 23.9019 7.89904C23.9043 8.07324 23.9791 8.23939 24.1098 8.36099L28.0564 12.0339L27.124 17.2204C27.1022 17.341 27.1161 17.4651 27.1644 17.5785C27.2126 17.692 27.2932 17.7903 27.397 17.8622C27.5008 17.9342 27.6236 17.9769 27.7516 17.9856C27.8795 17.9943 28.0075 17.9687 28.1209 17.9115L33 15.4628L37.8791 17.9115C38.0123 17.9792 38.167 18.0017 38.3152 17.9771C38.6891 17.9156 38.9404 17.5772 38.876 17.2204L37.9436 12.0339L41.8902 8.36099C41.9977 8.26051 42.0686 8.12926 42.09 7.9857C42.148 7.62681 41.8859 7.29459 41.51 7.24127Z" fill="#FFD43A"/>
<path d="M63.51 7.24127L58.0551 6.48453L55.6166 1.76568C55.55 1.63648 55.4404 1.53189 55.3051 1.46832C54.9656 1.30836 54.5531 1.44166 54.3834 1.76568L51.9449 6.48453L46.49 7.24127C46.3396 7.26178 46.2021 7.32945 46.0969 7.43199C45.9696 7.55685 45.8995 7.72484 45.9019 7.89904C45.9043 8.07324 45.9791 8.23939 46.1098 8.36099L50.0564 12.0339L49.124 17.2204C49.1022 17.341 49.1161 17.4651 49.1644 17.5785C49.2126 17.692 49.2932 17.7903 49.397 17.8622C49.5008 17.9342 49.6236 17.9769 49.7516 17.9856C49.8795 17.9943 50.0075 17.9687 50.1209 17.9115L55 15.4628L59.8791 17.9115C60.0123 17.9792 60.167 18.0017 60.3152 17.9771C60.6891 17.9156 60.9404 17.5772 60.876 17.2204L59.9436 12.0339L63.8902 8.36099C63.9977 8.26051 64.0686 8.12926 64.09 7.9857C64.148 7.62681 63.8859 7.29459 63.51 7.24127Z" fill="#FFD43A"/>
<path d="M85.51 7.24127L80.0551 6.48453L77.6166 1.76568C77.55 1.63648 77.4404 1.53189 77.3051 1.46832C76.9656 1.30836 76.5531 1.44166 76.3834 1.76568L73.9449 6.48453L68.49 7.24127C68.3396 7.26178 68.2021 7.32945 68.0969 7.43199C67.9696 7.55685 67.8995 7.72484 67.9019 7.89904C67.9043 8.07324 67.9791 8.23939 68.1098 8.36099L72.0564 12.0339L71.124 17.2204C71.1022 17.341 71.1161 17.4651 71.1644 17.5785C71.2126 17.692 71.2932 17.7903 71.397 17.8622C71.5008 17.9342 71.6236 17.9769 71.7516 17.9856C71.8795 17.9943 72.0075 17.9687 72.1209 17.9115L77 15.4628L81.8791 17.9115C82.0123 17.9792 82.167 18.0017 82.3152 17.9771C82.6891 17.9156 82.9404 17.5772 82.876 17.2204L81.9436 12.0339L85.8902 8.36099C85.9977 8.26051 86.0686 8.12926 86.09 7.9857C86.148 7.62681 85.8859 7.29459 85.51 7.24127Z" fill="#FFD43A"/>
<path d="M107.51 7.24127L102.055 6.48453L99.6166 1.76568C99.55 1.63648 99.4405 1.53189 99.3051 1.46832C98.9657 1.30836 98.5532 1.44166 98.3834 1.76568L95.9449 6.48453L90.4901 7.24127C90.3397 7.26178 90.2022 7.32945 90.0969 7.43199C89.9696 7.55685 89.8995 7.72484 89.9019 7.89904C89.9043 8.07324 89.9791 8.23939 90.1098 8.36099L94.0565 12.0339L93.124 17.2204C93.1022 17.341 93.1162 17.4651 93.1644 17.5785C93.2127 17.692 93.2933 17.7903 93.397 17.8622C93.5008 17.9342 93.6237 17.9769 93.7516 17.9856C93.8796 17.9943 94.0075 17.9687 94.1209 17.9115L99 15.4628L103.879 17.9115C104.012 17.9792 104.167 18.0017 104.315 17.9771C104.689 17.9156 104.94 17.5772 104.876 17.2204L103.944 12.0339L107.89 8.36099C107.998 8.26051 108.069 8.12926 108.09 7.9857C108.148 7.62681 107.886 7.29459 107.51 7.24127Z" fill="#FFD43A"/>
</svg>
