<svg width="21" height="21" viewBox="0 0 21 21" fill="none" xmlns="http://www.w3.org/2000/svg">
<path d="M14.0339 10.4973C14.0339 8.70532 12.5131 7.24291 10.6494 7.24291C8.78571 7.24291 7.26481 8.70532 7.26481 10.4973C7.26481 12.2893 8.78571 13.7517 10.6494 13.7517C12.5131 13.7517 14.0339 12.2893 14.0339 10.4973ZM10.6494 20.2581C12.0509 20.2581 13.4398 20.2703 14.8388 20.1946C16.4638 20.1189 17.906 19.7624 19.0943 18.6199C20.2851 17.4748 20.6533 16.0906 20.732 14.5281C20.8107 13.1804 20.798 11.845 20.798 10.4997C20.798 9.15209 20.8107 7.81664 20.732 6.47143C20.6533 4.90893 20.2826 3.52221 19.0943 2.37963C17.9035 1.23461 16.4638 0.880609 14.8388 0.804925C13.4373 0.729242 12.0484 0.741449 10.6494 0.741449C9.25035 0.741449 7.85895 0.729242 6.45992 0.804925C4.83492 0.880609 3.39274 1.23705 2.20446 2.37963C1.01364 3.52465 0.645472 4.90893 0.566761 6.47143C0.48805 7.81909 0.500744 9.15453 0.500744 10.4997C0.500744 11.8474 0.48805 13.1829 0.566761 14.5281C0.645472 16.0906 1.01618 17.4773 2.20446 18.6199C3.39528 19.7649 4.83492 20.1189 6.45992 20.1946C7.85895 20.2727 9.24782 20.2581 10.6494 20.2581ZM5.44176 10.4973C5.44176 7.72631 7.76754 5.48998 10.6494 5.48998C13.5312 5.48998 15.857 7.72631 15.857 10.4973C15.857 13.2683 13.5312 15.5046 10.6494 15.5046C7.76754 15.5046 5.44176 13.2683 5.44176 10.4973ZM14.8541 15.7097C14.8541 15.0627 15.3974 14.5403 16.0703 14.5403C16.7431 14.5403 17.2865 15.0627 17.2865 15.7097C17.2865 16.3567 16.7431 16.8791 16.0703 16.8791C15.9105 16.8793 15.7523 16.8492 15.6046 16.7905C15.457 16.7318 15.3228 16.6457 15.2098 16.5371C15.0969 16.4284 15.0073 16.2994 14.9462 16.1575C14.8852 16.0155 14.8539 15.8633 14.8541 15.7097Z" fill="white"/>
</svg>
